<svg width="24" height="24" viewBox="0 0 24 24" fill="none" xmlns="http://www.w3.org/2000/svg">
    <path d="M13.9989 20.7935L13.9989 12.8535C16.6889 11.9035 18.4989 9.09349 17.8789 5.97349C17.4189 3.68349 15.5789 1.82349 13.2989 1.34349C9.4189 0.523492 5.9989 3.46349 5.9989 7.20349C5.9989 9.81349 7.6689 12.0335 9.9989 12.8535L9.9989 13.2035L8.7089 14.4935C8.3189 14.8835 8.3189 15.5135 8.7089 15.9035L9.9989 17.2035L8.7089 18.4935C8.3189 18.8835 8.3189 19.5235 8.7089 19.9135L11.3189 22.5035C11.7089 22.8935 12.3489 22.8935 12.7389 22.4935L13.7089 21.5035C13.8989 21.3035 13.9989 21.0535 13.9989 20.7935ZM8.9989 7.20349C8.9989 5.55349 10.3489 4.20349 11.9989 4.20349C13.6489 4.20349 14.9989 5.55349 14.9989 7.20349C14.9989 8.85349 13.6489 10.2035 11.9989 10.2035C10.3489 10.2035 8.9989 8.85349 8.9989 7.20349Z"/>
</svg>
