<svg width="64" height="64" viewBox="0 0 64 64" fill="none" xmlns="http://www.w3.org/2000/svg">
  <path
    d="M48.4603 0H15.5397C6.97087 0 0 6.97087 0 15.5397V48.4603C0 57.0291 6.97087 64 15.5397 64H48.4603C57.0291 64 64 57.0291 64 48.4603V15.5397C64 6.97087 57.0291 0 48.4603 0Z"
    fill="#48ABE2" />
  <path
    d="M48.4602 2.30013H15.5397C8.22757 2.30013 2.30029 8.2274 2.30029 15.5395V48.46C2.30029 55.7721 8.22757 61.6994 15.5397 61.6994H48.4602C55.7723 61.6994 61.6996 55.7721 61.6996 48.46V15.5395C61.6996 8.2274 55.7723 2.30013 48.4602 2.30013Z"
    fill="white" />
  <path
    d="M22.4244 32.5217C22.3194 32.5141 22.2642 32.5095 22.2642 32.5095C28.6937 40.1129 33.2821 33.8038 33.6901 33.208C33.7261 33.2103 33.7621 33.2126 33.799 33.2157C33.7982 33.2149 30.0793 25.4872 22.4244 32.5217Z"
    fill="#4BA9E0" />
  <path
    d="M46.767 23.0826C42.8809 19.4718 35.2828 8.13788 28.144 8.43846C26.5782 8.2989 24.9856 9.26046 25.0201 10.4712C24.9979 12.6366 29.0948 13.168 30.3017 11.5301C32.0792 11.876 36.1431 13.1274 39.2394 17.5625C32.1075 12.6589 28.2491 16.7228 32.2801 17.2864C32.9955 17.2864 33.6012 16.9851 33.8075 16.5695C39.2364 16.5465 42.6547 21.9431 43.0082 28.8772C52.5248 44.7129 22.0457 54.7985 17.3346 31.9612C17.5938 31.6706 23.406 25.7702 26.0913 24.9037C30.1108 23.0381 35.8633 23.3832 39.5231 25.7196C39.106 21.9937 37.5556 19.8498 35.9545 18.6168C34.7001 18.4343 33.4065 18.3431 32.0753 18.3431C24.4788 18.3293 16.5762 21.5429 12.8059 28.2162C7.70526 37.1608 15.0074 46.8193 23.8906 49.4156C25.9955 50.1924 28.3694 50.5881 30.7994 50.6586C35.3365 50.7905 40.0676 49.7906 43.6048 48.0224V50.6946H52.8806V34.52C52.9105 29.9323 50.354 25.8676 46.767 23.0826Z"
    fill="#1A1A1A" />
  <path opacity="0.42"
    d="M61.6995 48.4603V38.4116L50.8924 27.6359C52.1499 29.6963 52.896 32.0304 52.8784 34.5194V50.6948H43.6025V48.0225C40.0661 49.7907 35.3342 50.7914 30.7972 50.6587C28.3672 50.5882 25.9932 50.1925 23.8884 49.4158C23.1078 49.1873 22.3395 48.9043 21.5903 48.5731C22.3096 49.6297 23.1377 50.6066 24.0602 51.4853L34.2991 61.699H48.4586C55.7722 61.6997 61.6995 55.7724 61.6995 48.4603Z"
    fill="url(#paint0_linear_1995_11712)" />
  <defs>
    <linearGradient id="paint0_linear_1995_11712" x1="23.7855" y1="25.8578" x2="68.8706" y2="70.9429"
      gradientUnits="userSpaceOnUse">
      <stop stop-color="#CFD0D2" />
      <stop offset="1" stop-color="#CFD0D2" />
    </linearGradient>
  </defs>
</svg>