<svg width="198" height="49" viewBox="0 0 198 49" fill="none" xmlns="http://www.w3.org/2000/svg">
<g clip-path="url(#clip0_1909_30428)">
<path d="M11.9932 28.1208C11.8818 28.1122 11.8242 28.1073 11.8242 28.1073C18.592 36.713 23.4214 29.5718 23.8512 28.8971C23.8891 28.8996 23.9271 28.902 23.965 28.9057C23.965 28.9057 20.0491 20.1591 11.9932 28.1208Z" fill="#48ABE2"/>
<path d="M37.6144 17.437C37.2851 17.1627 36.9446 16.8983 36.5969 16.6423C33.6067 12.3713 24.6446 0.45091 18.014 0.863563C17.9185 0.856216 17.8206 0.852539 17.7226 0.852539C16.0683 0.852539 14.7263 1.88723 14.7263 3.16438C14.7263 4.44152 16.0683 5.47621 17.7226 5.47621C18.8087 5.47621 19.7602 5.0305 20.2855 4.36316C22.1565 4.75377 26.4336 6.1705 29.6932 11.1909C27.2675 9.5305 24.423 8.08805 22.3255 8.54846C21.4132 8.56438 20.681 9.07989 20.681 9.71295C20.681 10.357 21.4365 10.8787 22.3683 10.8787C23.1214 10.8787 23.7581 10.5383 23.9761 10.0668C25.5544 10.117 29.5891 10.7721 31.9695 15.8856C32.763 18.1313 33.363 20.8068 33.6606 23.9966C33.7573 24.1399 33.8516 24.2856 33.9422 24.4338C35.0259 26.1958 35.643 28.2236 35.643 30.3836C35.643 37.1525 29.5757 42.6395 22.0916 42.6395C16.5055 42.6395 11.7091 39.5831 9.63485 35.2191C8.63934 33.3946 7.17118 30.3591 6.63608 27.4889C6.63608 27.4889 9.75853 24.004 12.6373 21.6027C13.0181 21.2856 13.3953 20.9868 13.7589 20.7174C14.4116 20.257 15.112 19.8493 15.8528 19.5015C17.7202 18.6248 19.841 18.1289 22.0916 18.1289C25.0389 18.1289 27.7671 18.9799 29.9908 20.426C29.5524 16.2089 27.9202 13.7819 26.234 12.3872C24.9128 12.1815 23.5524 12.0774 22.1504 12.0774C19.0793 12.0774 16.2067 12.5599 13.5349 13.5236C10.863 14.4885 8.53893 15.7938 6.56506 17.4395C4.59118 19.0852 3.02506 21.0223 1.86791 23.2509C0.710772 25.4795 0.132812 27.8574 0.132812 30.3836C0.132812 32.9109 0.710772 35.2803 1.86791 37.4917C3.02506 39.7032 4.58996 41.6403 6.56506 43.3032C8.54016 44.966 10.863 46.2799 13.5349 47.2436C16.2067 48.2085 19.0793 48.6897 22.1504 48.6897C23.3859 48.6897 24.603 48.5991 25.7993 48.4154C26.9957 48.2329 28.1528 47.9746 29.2695 47.6427C31.8177 46.7979 33.3826 46.1158 34.2851 45.6664V48.6909H44.0479V30.3836C44.0479 27.8562 43.47 25.4783 42.3128 23.2509C41.1557 21.0236 39.5896 19.0827 37.6144 17.437Z" fill="#1A1A1A"/>
<path d="M54.9818 22.1745C56.0006 20.2252 57.372 18.5158 59.0973 17.0451C60.8214 15.5758 62.8504 14.4186 65.183 13.5762C67.5144 12.7337 69.994 12.3125 72.6206 12.3125C75.2863 12.3125 77.7842 12.7337 80.1169 13.5762C82.4483 14.4186 84.4871 15.5758 86.232 17.0451C87.9757 18.5158 89.3483 20.2252 90.3475 22.1745C91.3467 24.1239 91.8463 26.2056 91.8463 28.4194V48.6896H82.2622V28.4549C82.2622 27.3664 82.0063 26.328 81.4944 25.3386C80.9838 24.3492 80.2957 23.4921 79.4299 22.766C78.5642 22.0398 77.543 21.4631 76.3638 21.0345C75.1846 20.606 73.9259 20.3905 72.5899 20.3905C71.2528 20.3905 70.0038 20.6047 68.8442 21.0345C67.6846 21.4631 66.672 22.0411 65.8075 22.766C64.9418 23.4921 64.2646 24.3492 63.7724 25.3386C63.2814 26.328 63.0352 27.3664 63.0352 28.4549V48.6896H53.4512V28.4194C53.4536 26.2056 53.9618 24.1239 54.9818 22.1745Z" fill="#1A1A1A"/>
<path d="M132.129 37.0915C132.129 38.0503 132.531 38.8756 133.334 39.5699C134.137 40.2642 135.107 40.6107 136.245 40.6107C137.381 40.6107 138.362 40.2642 139.185 39.5699C140.007 38.8756 140.419 38.0503 140.419 37.0915C140.419 36.4646 140.233 35.9025 139.86 35.4066C139.487 34.9107 139.027 34.4821 138.479 34.1185C137.929 33.7891 137.205 33.4413 136.303 33.0776C135.401 32.714 134.421 32.3185 133.363 31.8887C132.305 31.4601 131.227 30.9642 130.129 30.4021C129.031 29.8413 128.042 29.1874 127.16 28.4442C126.278 27.7009 125.562 26.834 125.013 25.8421C124.464 24.8515 124.191 23.7115 124.191 22.4221C124.191 21.0348 124.511 19.7295 125.154 18.5074C125.797 17.2854 126.654 16.2115 127.726 15.2858C128.797 14.3613 130.063 13.634 131.524 13.105C132.985 12.5772 134.539 12.3115 136.185 12.3115C137.831 12.3115 139.389 12.576 140.86 13.105C142.329 13.634 143.613 14.3613 144.711 15.2858C145.808 16.2115 146.67 17.2854 147.298 18.5074C147.925 19.7307 148.238 21.0348 148.238 22.4221H138.713C138.713 21.8736 138.457 21.3985 137.949 20.9944C137.44 20.5915 136.851 20.3895 136.185 20.3895C135.517 20.3895 134.95 20.5964 134.479 21.0079C134.009 21.4193 133.773 21.9066 133.773 22.4662C133.773 23.3246 134.206 23.9344 135.071 24.2968C136.762 25.056 138.484 25.7576 140.235 26.4005C141.986 27.0434 143.589 27.8099 145.045 28.7001C146.5 29.5903 147.691 30.696 148.616 32.0148C149.54 33.3348 150.003 35.0332 150.003 37.1099C150.003 38.6932 149.64 40.1944 148.916 41.6123C148.189 43.0315 147.21 44.2597 145.976 45.2981C144.741 46.3376 143.28 47.1617 141.596 47.7715C139.909 48.3813 138.127 48.6862 136.245 48.6862C134.362 48.6862 132.589 48.3813 130.923 47.7691C129.256 47.158 127.807 46.3315 126.572 45.2907C125.338 44.2499 124.357 43.0193 123.632 41.5989C122.906 40.1785 122.545 38.6748 122.545 37.0891H132.129V37.0915Z" fill="#48ABE2"/>
<path d="M176.346 48.6887C173.328 48.6887 170.505 48.2099 167.879 47.2511C165.252 46.2936 162.969 44.9883 161.029 43.3364C159.088 41.6846 157.55 39.7609 156.413 37.563C155.275 35.3662 154.707 33.0115 154.707 30.5001C154.707 27.9899 155.275 25.6266 156.413 23.4127C157.549 21.2001 159.088 19.274 161.029 17.6393C162.97 16.0034 165.252 14.7078 167.879 13.7491C170.504 12.7915 173.327 12.3115 176.346 12.3115C179.324 12.3115 182.117 12.7903 184.725 13.7491C187.332 14.7078 189.606 16.0046 191.546 17.6393C193.487 19.2752 195.025 21.2001 196.161 23.4127C197.297 25.6266 197.867 27.9899 197.867 30.5001V48.6887H188.283V30.5319C188.283 29.147 187.968 27.8368 187.342 26.5989C186.715 25.3621 185.852 24.2821 184.755 23.3576C183.656 22.4344 182.393 21.7095 180.963 21.1805C179.531 20.6527 177.993 20.3895 176.347 20.3895C174.702 20.3895 173.143 20.654 171.674 21.1805C170.203 21.7083 168.92 22.4332 167.823 23.3552C166.724 24.2785 165.862 25.3572 165.235 26.5927C164.608 27.8283 164.295 29.1385 164.295 30.5234C164.295 31.9083 164.608 33.2099 165.235 34.4295C165.862 35.6491 166.724 36.7119 167.823 37.6181C168.92 38.5242 170.204 39.2491 171.674 39.7928C173.143 40.3364 174.702 40.6083 176.347 40.6083C177.641 40.6083 178.885 40.4344 180.081 40.0878C181.276 39.7413 182.365 39.254 183.344 38.6258V47.6454C182.246 47.976 181.109 48.2319 179.934 48.4132C178.757 48.5981 177.561 48.6887 176.346 48.6887Z" fill="#48ABE2"/>
<path d="M119.765 12.4105H110.842V2.20068H101.258V48.6884H110.842V20.4884H114.664H120.545C120.545 20.4884 120.668 15.446 125.156 12.3113L119.765 12.4105Z" fill="#1A1A1A"/>
</g>
<defs>
<clipPath id="clip0_1909_30428">
<rect width="197.878" height="48" fill="white" transform="translate(0.0605469 0.770508)"/>
</clipPath>
</defs>
</svg>
