<svg width="198" height="49" viewBox="0 0 198 49" fill="none" xmlns="http://www.w3.org/2000/svg">
  <g clip-path="url(#clip0_156_14011)">
    <path
      d="M11.9327 27.6208C11.8212 27.6122 11.7637 27.6073 11.7637 27.6073C18.5314 36.213 23.3608 29.0718 23.7906 28.3971C23.8286 28.3996 23.8665 28.402 23.9045 28.4057C23.9045 28.4057 19.9886 19.6591 11.9327 27.6208Z"
      fill="#48ABE2" />
    <path
      d="M37.5539 16.937C37.2245 16.6627 36.8841 16.3983 36.5363 16.1423C33.5461 11.8713 24.5841 -0.0490903 17.9535 0.363563C17.858 0.356216 17.76 0.352539 17.6621 0.352539C16.0078 0.352539 14.6657 1.38723 14.6657 2.66438C14.6657 3.94152 16.0078 4.97621 17.6621 4.97621C18.7482 4.97621 19.6996 4.5305 20.2249 3.86316C22.0959 4.25377 26.3731 5.6705 29.6327 10.6909C27.207 9.0305 24.3625 7.58805 22.2649 8.04846C21.3527 8.06438 20.6204 8.57989 20.6204 9.21295C20.6204 9.85703 21.3759 10.3787 22.3078 10.3787C23.0608 10.3787 23.6976 10.0383 23.9155 9.56682C25.4939 9.61703 29.5286 10.2721 31.909 15.3856C32.7025 17.6313 33.3025 20.3068 33.6 23.4966C33.6968 23.6399 33.791 23.7856 33.8817 23.9338C34.9653 25.6958 35.5825 27.7236 35.5825 29.8836C35.5825 36.6525 29.5151 42.1395 22.031 42.1395C16.4449 42.1395 11.6486 39.0831 9.57431 34.7191C8.5788 32.8946 7.11063 29.8591 6.57553 26.9889C6.57553 26.9889 9.69798 23.504 12.5768 21.1027C12.9576 20.7856 13.3347 20.4868 13.6984 20.2174C14.351 19.757 15.0515 19.3493 15.7923 19.0015C17.6596 18.1248 19.7804 17.6289 22.031 17.6289C24.9784 17.6289 27.7066 18.4799 29.9302 19.926C29.4919 15.7089 27.8596 13.2819 26.1735 11.8872C24.8523 11.6815 23.4919 11.5774 22.0898 11.5774C19.0188 11.5774 16.1461 12.0599 13.4743 13.0236C10.8025 13.9885 8.47839 15.2938 6.50451 16.9395C4.53063 18.5852 2.96451 20.5223 1.80737 22.7509C0.650225 24.9795 0.0722656 27.3574 0.0722656 29.8836C0.0722656 32.4109 0.650225 34.7803 1.80737 36.9917C2.96451 39.2032 4.52941 41.1403 6.50451 42.8032C8.47961 44.466 10.8025 45.7799 13.4743 46.7436C16.1461 47.7085 19.0188 48.1897 22.0898 48.1897C23.3253 48.1897 24.5425 48.0991 25.7388 47.9154C26.9351 47.7329 28.0923 47.4746 29.209 47.1428C31.7572 46.2979 33.3221 45.6158 34.2245 45.1664V48.1909H43.9874V29.8836C43.9874 27.3562 43.4094 24.9783 42.2523 22.7509C41.0951 20.5236 39.529 18.5827 37.5539 16.937Z"
      fill="white" />
    <path
      d="M54.9222 21.6745C55.941 19.7252 57.3124 18.0158 59.0377 16.5451C60.7618 15.0758 62.7908 13.9186 65.1234 13.0762C67.4549 12.2337 69.9345 11.8125 72.561 11.8125C75.2267 11.8125 77.7247 12.2337 80.0573 13.0762C82.3887 13.9186 84.4275 15.0758 86.1724 16.5451C87.9161 18.0158 89.2887 19.7252 90.2879 21.6745C91.2871 23.6239 91.7867 25.7056 91.7867 27.9194V48.1896H82.2026V27.9549C82.2026 26.8664 81.9467 25.828 81.4349 24.8386C80.9242 23.8492 80.2361 22.9921 79.3704 22.266C78.5047 21.5398 77.4834 20.9631 76.3043 20.5345C75.1251 20.106 73.8663 19.8905 72.5304 19.8905C71.1932 19.8905 69.9442 20.1047 68.7847 20.5345C67.6251 20.9631 66.6124 21.5411 65.7479 22.266C64.8822 22.9921 64.2051 23.8492 63.7128 24.8386C63.2218 25.828 62.9757 26.8664 62.9757 27.9549V48.1896H53.3916V27.9194C53.3941 25.7056 53.9022 23.6239 54.9222 21.6745Z"
      fill="white" />
    <path
      d="M132.068 36.5915C132.068 37.5503 132.47 38.3756 133.273 39.0699C134.077 39.7642 135.046 40.1107 136.184 40.1107C137.32 40.1107 138.301 39.7642 139.124 39.0699C139.947 38.3756 140.358 37.5503 140.358 36.5915C140.358 35.9646 140.172 35.4025 139.8 34.9066C139.426 34.4107 138.966 33.9821 138.419 33.6185C137.869 33.2891 137.144 32.9413 136.243 32.5776C135.34 32.214 134.361 31.8185 133.303 31.3887C132.245 30.9601 131.166 30.4642 130.069 29.9021C128.97 29.3413 127.981 28.6874 127.099 27.9442C126.218 27.2009 125.502 26.334 124.953 25.3421C124.403 24.3515 124.13 23.2115 124.13 21.9221C124.13 20.5348 124.451 19.2295 125.094 18.0074C125.737 16.7854 126.594 15.7115 127.665 14.7858C128.737 13.8613 130.003 13.134 131.464 12.605C132.924 12.0772 134.478 11.8115 136.124 11.8115C137.771 11.8115 139.328 12.076 140.799 12.605C142.268 13.134 143.553 13.8613 144.65 14.7858C145.747 15.7115 146.609 16.7854 147.237 18.0074C147.864 19.2307 148.178 20.5348 148.178 21.9221H138.653C138.653 21.3736 138.397 20.8985 137.888 20.4944C137.379 20.0915 136.79 19.8895 136.124 19.8895C135.457 19.8895 134.89 20.0964 134.418 20.5079C133.948 20.9193 133.713 21.4066 133.713 21.9662C133.713 22.8246 134.145 23.4344 135.011 23.7968C136.702 24.556 138.424 25.2576 140.175 25.9005C141.926 26.5434 143.528 27.3099 144.984 28.2001C146.439 29.0903 147.63 30.196 148.555 31.5148C149.479 32.8348 149.942 34.5332 149.942 36.6099C149.942 38.1932 149.58 39.6944 148.855 41.1123C148.129 42.5315 147.149 43.7597 145.915 44.7981C144.681 45.8376 143.22 46.6617 141.535 47.2715C139.849 47.8813 138.066 48.1862 136.184 48.1862C134.302 48.1862 132.529 47.8813 130.862 47.2691C129.196 46.658 127.746 45.8315 126.512 44.7907C125.277 43.7499 124.297 42.5193 123.572 41.0989C122.846 39.6785 122.484 38.1748 122.484 36.5891H132.068V36.5915Z"
      fill="#48ABE2" />
    <path
      d="M176.285 48.1887C173.266 48.1887 170.444 47.7099 167.817 46.7511C165.191 45.7936 162.907 44.4883 160.968 42.8364C159.027 41.1846 157.489 39.2609 156.351 37.063C155.214 34.8662 154.646 32.5115 154.646 30.0001C154.646 27.4899 155.214 25.1266 156.351 22.9127C157.488 20.7001 159.027 18.774 160.968 17.1393C162.908 15.5034 165.191 14.2078 167.817 13.2491C170.443 12.2915 173.265 11.8115 176.285 11.8115C179.263 11.8115 182.056 12.2903 184.664 13.2491C187.271 14.2078 189.545 15.5046 191.484 17.1393C193.425 18.7752 194.963 20.7001 196.099 22.9127C197.236 25.1266 197.805 27.4899 197.805 30.0001V48.1887H188.221V30.0319C188.221 28.647 187.906 27.3368 187.281 26.0989C186.654 24.8621 185.79 23.7821 184.693 22.8576C183.595 21.9344 182.331 21.2095 180.901 20.6805C179.47 20.1527 177.932 19.8895 176.286 19.8895C174.64 19.8895 173.081 20.154 171.612 20.6805C170.141 21.2083 168.858 21.9332 167.761 22.8552C166.663 23.7785 165.801 24.8572 165.174 26.0927C164.547 27.3283 164.233 28.6385 164.233 30.0234C164.233 31.4083 164.547 32.7099 165.174 33.9295C165.801 35.1491 166.663 36.2119 167.761 37.1181C168.858 38.0242 170.143 38.7491 171.612 39.2928C173.081 39.8364 174.64 40.1083 176.286 40.1083C177.579 40.1083 178.823 39.9344 180.019 39.5878C181.214 39.2413 182.303 38.754 183.283 38.1258V47.1454C182.184 47.476 181.048 47.7319 179.872 47.9132C178.696 48.0981 177.499 48.1887 176.285 48.1887Z"
      fill="#48ABE2" />
    <path
      d="M119.704 11.9105H110.781V1.70068H101.197V48.1884H110.781V19.9884H114.602H120.484C120.484 19.9884 120.607 14.946 125.095 11.8113L119.704 11.9105Z"
      fill="white" />
  </g>
  <defs>
    <clipPath id="clip0_156_14011">
      <rect width="197.878" height="48" fill="white" transform="translate(0 0.270508)" />
    </clipPath>
  </defs>
</svg>