<svg width="15" height="14" viewBox="0 0 15 14" fill="none" xmlns="http://www.w3.org/2000/svg">
  <path
    d="M13.007 6.44584L7.64617 11.8067C6.98942 12.4634 6.09869 12.8324 5.16992 12.8324C4.24114 12.8324 3.35041 12.4634 2.69367 11.8067C2.03692 11.1499 1.66797 10.2592 1.66797 9.33042C1.66797 8.40165 2.03692 7.51091 2.69367 6.85417L8.0545 1.49334C8.49233 1.05551 9.08615 0.80954 9.70533 0.80954C10.3245 0.80954 10.9183 1.05551 11.3562 1.49334C11.794 1.93117 12.04 2.52499 12.04 3.14417C12.04 3.76335 11.794 4.35718 11.3562 4.795L5.9895 10.1558C5.77058 10.3748 5.47367 10.4977 5.16408 10.4977C4.85449 10.4977 4.55758 10.3748 4.33867 10.1558C4.11975 9.93692 3.99677 9.64001 3.99677 9.33042C3.99677 9.02083 4.11975 8.72392 4.33867 8.505L9.29116 3.55834"
    stroke="currentColor" stroke-linecap="round" stroke-linejoin="round" />
</svg>