<svg width="48" height="48" viewBox="0 0 48 48" fill="none" xmlns="http://www.w3.org/2000/svg">
<rect width="48" height="48" rx="24" fill="#FEEEE9"/>
<path d="M33 17.98C29.67 17.65 26.32 17.48 22.98 17.48C21 17.48 19.02 17.58 17.04 17.78L15 17.98" stroke="#FF7777" stroke-width="2" stroke-linecap="round" stroke-linejoin="round"/>
<path d="M20.5 16.97L20.72 15.66C20.88 14.71 21 14 22.69 14H25.31C27 14 27.13 14.75 27.28 15.67L27.5 16.97" stroke="#FF7777" stroke-width="2" stroke-linecap="round" stroke-linejoin="round"/>
<path d="M30.8504 21.14L30.2004 31.21C30.0904 32.78 30.0004 34 27.2104 34H20.7904C18.0004 34 17.9104 32.78 17.8004 31.21L17.1504 21.14" stroke="#FF7777" stroke-width="2" stroke-linecap="round" stroke-linejoin="round"/>
<path d="M22.3301 28.5H25.6601" stroke="#FF7777" stroke-width="2" stroke-linecap="round" stroke-linejoin="round"/>
<path d="M21.5 24.5H26.5" stroke="#FF7777" stroke-width="2" stroke-linecap="round" stroke-linejoin="round"/>
</svg>
