<svg width="8" height="14" viewBox="0 0 8 14" fill="none" xmlns="http://www.w3.org/2000/svg">
  <path
    d="M2.33645 0.5H1.67056C0.903037 0.5 0.5 0.903037 0.5 1.66706V2.33294C0.5 3.09696 0.903037 3.5 1.66706 3.5H2.33294C3.09696 3.5 3.5 3.09696 3.5 2.33294V1.66706C3.5035 0.903037 3.10047 0.5 2.33645 0.5Z"
    fill="#BFC8D7" />
  <path
    d="M6.83294 0.5H6.16706C5.40304 0.5 5 0.903037 5 1.66706V2.33294C5 3.09696 5.40304 3.5 6.16706 3.5H6.83294C7.59696 3.5 8 3.09696 8 2.33294V1.66706C8 0.903037 7.59696 0.5 6.83294 0.5Z"
    fill="#BFC8D7" />
  <path
    d="M6.83294 5.5H6.16706C5.40304 5.5 5 5.90304 5 6.66706V7.33294C5 8.09696 5.40304 8.5 6.16706 8.5H6.83294C7.59696 8.5 8 8.09696 8 7.33294V6.66706C8 5.90304 7.59696 5.5 6.83294 5.5Z"
    fill="#BFC8D7" />
  <path
    d="M2.33645 5.5H1.67056C0.903037 5.5 0.5 5.90257 0.5 6.66569V7.3308C0.5 8.09743 0.903037 8.5 1.66706 8.5H2.33294C3.09696 8.5 3.5 8.09743 3.5 7.33431V6.66919C3.5035 5.90257 3.10047 5.5 2.33645 5.5Z"
    fill="#BFC8D7" />
  <path
    d="M6.83294 10.5H6.16706C5.40304 10.5 5 10.903 5 11.6671V12.3329C5 13.097 5.40304 13.5 6.16706 13.5H6.83294C7.59696 13.5 8 13.097 8 12.3329V11.6671C8 10.903 7.59696 10.5 6.83294 10.5Z"
    fill="#BFC8D7" />
  <path
    d="M2.33645 10.5H1.67056C0.903037 10.5 0.5 10.9026 0.5 11.6657V12.3308C0.5 13.0974 0.903037 13.5 1.66706 13.5H2.33294C3.09696 13.5 3.5 13.0974 3.5 12.3343V11.6692C3.5035 10.9026 3.10047 10.5 2.33645 10.5Z"
    fill="#BFC8D7" />
</svg>