<svg width="64" height="64" viewBox="0 0 64 64" fill="none" xmlns="http://www.w3.org/2000/svg">
<rect width="64" height="64" rx="32" fill="#FEEEE9"/>
<path d="M30.2898 23.86L21.8198 38C21.6451 38.3024 21.5527 38.6453 21.5518 38.9945C21.5508 39.3437 21.6413 39.6871 21.8142 39.9905C21.9871 40.2939 22.2365 40.5467 22.5375 40.7238C22.8385 40.9009 23.1806 40.9961 23.5298 41H40.4698C40.819 40.9961 41.1611 40.9009 41.4621 40.7238C41.7631 40.5467 42.0124 40.2939 42.1854 39.9905C42.3583 39.6871 42.4488 39.3437 42.4478 38.9945C42.4468 38.6453 42.3544 38.3024 42.1798 38L33.7098 23.86C33.5315 23.5661 33.2805 23.3231 32.981 23.1544C32.6814 22.9858 32.3435 22.8972 31.9998 22.8972C31.656 22.8972 31.3181 22.9858 31.0186 23.1544C30.7191 23.3231 30.468 23.5661 30.2898 23.86V23.86Z" stroke="#FF7777" stroke-width="2" stroke-linecap="round" stroke-linejoin="round"/>
<path d="M32 29V33" stroke="#FF7777" stroke-width="2" stroke-linecap="round" stroke-linejoin="round"/>
<path d="M32 37H32.01" stroke="#FF7777" stroke-width="2" stroke-linecap="round" stroke-linejoin="round"/>
</svg>
