<svg width="12" height="14" viewBox="0 0 12 14" fill="none" xmlns="http://www.w3.org/2000/svg">
<path d="M2.16 1.2478H9.83C10.47 1.2478 10.99 1.7678 10.99 2.4078V3.6878C10.99 4.1578 10.7 4.7378 10.41 5.0278L7.91 7.2378C7.56 7.5278 7.33 8.1078 7.33 8.5778V11.0778C7.33 11.4278 7.1 11.8878 6.81 12.0678L6 12.5778C5.24 13.0478 4.2 12.5178 4.2 11.5878V8.5078C4.2 8.0978 3.97 7.5778 3.73 7.2878L1.52 4.9578C1.23 4.6778 1 4.1478 1 3.7978V2.4678C1 1.7678 1.52 1.2478 2.16 1.2478Z" stroke="#48ABE2" stroke-width="1.5" stroke-miterlimit="10" stroke-linecap="round" stroke-linejoin="round"/>
</svg>
