<svg width="110" height="44" viewBox="0 0 110 44" fill="none" xmlns="http://www.w3.org/2000/svg">
  <path
    d="M30.1292 12.0628C30.7053 10.9542 31.4798 9.98206 32.455 9.14571C33.4294 8.31005 34.5759 7.65197 35.8944 7.17286C37.2122 6.69375 38.6135 6.4542 40.0976 6.4542C41.6039 6.4542 43.0159 6.69375 44.3344 7.17286C45.6522 7.65197 46.8044 8.31005 47.7902 9.14571C48.7754 9.98206 49.5513 10.9542 50.116 12.0628C50.6807 13.1715 50.9634 14.3553 50.9634 15.6144V27.1423H45.5473V15.6346C45.5473 15.0155 45.4023 14.425 45.1139 13.8623C44.8255 13.2996 44.4365 12.8122 43.9475 12.3992C43.4585 11.9862 42.881 11.6582 42.2142 11.4145C41.5475 11.1708 40.8365 11.0482 40.0812 11.0482C39.3252 11.0482 38.6199 11.1701 37.9646 11.4145C37.3092 11.6582 36.7374 11.9869 36.2484 12.3992C35.7594 12.8122 35.3761 13.2996 35.0984 13.8623C34.8207 14.425 34.6822 15.0155 34.6822 15.6346V27.1423H29.2661V15.6144C29.2654 14.3553 29.5531 13.1715 30.1292 12.0628Z"
    fill="#1A1A1A" />
  <path
    d="M73.4034 20.5473C73.4034 21.0926 73.6249 21.562 74.0678 21.9568C74.5107 22.3517 75.0455 22.5488 75.6723 22.5488C76.299 22.5488 76.8394 22.3517 77.2928 21.9568C77.7468 21.562 77.9732 21.0926 77.9732 20.5473C77.9732 20.1908 77.8701 19.8711 77.6654 19.5891C77.4599 19.307 77.2057 19.0633 76.9035 18.8565C76.6006 18.6691 76.2008 18.4713 75.7043 18.2645C75.2071 18.0577 74.6667 17.8327 74.0838 17.5883C73.5002 17.3446 72.9055 17.0625 72.301 16.7429C71.6958 16.4239 71.1506 16.052 70.6638 15.6293C70.1777 15.2066 69.7828 14.7135 69.4806 14.1495C69.1777 13.5861 69.0265 12.9377 69.0265 12.2044C69.0265 11.4154 69.2034 10.673 69.5579 9.978C69.9124 9.28299 70.3852 8.67224 70.9758 8.14576C71.5663 7.61998 72.2648 7.20631 73.0698 6.90546C73.8749 6.60531 74.7314 6.4542 75.6395 6.4542C76.547 6.4542 77.4063 6.60462 78.2169 6.90546C79.0275 7.20631 79.7351 7.61998 80.3402 8.14576C80.9447 8.67224 81.4203 9.28299 81.7665 9.978C82.1119 10.6737 82.2853 11.4154 82.2853 12.2044H77.0337C77.0337 11.8924 76.8931 11.6222 76.6124 11.3924C76.3311 11.1633 76.0072 11.0484 75.6402 11.0484C75.2725 11.0484 74.9599 11.1661 74.7001 11.4001C74.441 11.6341 74.3108 11.9112 74.3108 12.2295C74.3108 12.7177 74.5497 13.0645 75.0267 13.2706C75.9592 13.7024 76.9077 14.1014 77.8729 14.467C78.8381 14.8326 79.7218 15.2686 80.5241 15.7749C81.3263 16.2812 81.983 16.91 82.4921 17.66C83.0012 18.4101 83.2568 19.3767 83.2568 20.5578C83.2568 21.4582 83.0569 22.312 82.6572 23.1185C82.2567 23.9256 81.717 24.6241 81.0366 25.2146C80.3556 25.8059 79.5505 26.2746 78.6215 26.6214C77.6918 26.9682 76.7092 27.1423 75.6716 27.1423C74.6339 27.1423 73.6562 26.9689 72.7377 26.6207C71.8191 26.2732 71.0196 25.8031 70.3393 25.2111C69.6589 24.6192 69.1178 23.9193 68.7187 23.1115C68.3183 22.3037 68.1191 21.4485 68.1191 20.5466H73.4034V20.5473Z"
    fill="#48ABE2" />
  <path
    d="M98.1746 27.1423C96.5156 27.1423 94.965 26.87 93.5219 26.3247C92.0788 25.7801 90.8238 25.0378 89.7576 24.0984C88.6914 23.159 87.846 22.065 87.2213 20.815C86.5965 19.5656 86.2842 18.2265 86.2842 16.7982C86.2842 15.3707 86.5958 14.0266 87.2213 12.7676C87.846 11.5092 88.6914 10.4138 89.7576 9.48415C90.8238 8.55378 92.0781 7.81701 93.5219 7.27175C94.965 6.72718 96.5156 6.4542 98.1746 6.4542C99.8113 6.4542 101.346 6.72648 102.779 7.27175C104.211 7.81701 105.46 8.55448 106.526 9.48415C107.593 10.4145 108.438 11.5092 109.063 12.7676C109.687 14.0266 110 15.3707 110 16.7982V27.1423H104.733V16.8163C104.733 16.0287 104.561 15.2836 104.216 14.5796C103.871 13.8762 103.397 13.262 102.795 12.7362C102.192 12.2112 101.497 11.7989 100.711 11.4981C99.9245 11.1979 99.079 11.0482 98.1746 11.0482C97.2701 11.0482 96.4136 11.1986 95.6063 11.4981C94.7984 11.7982 94.0931 12.2105 93.4899 12.7348C92.8867 13.2599 92.4126 13.8734 92.0683 14.5761C91.7234 15.2787 91.5512 16.0239 91.5512 16.8115C91.5512 17.5991 91.7234 18.3393 92.0683 19.0329C92.4126 19.7265 92.8867 20.331 93.4899 20.8463C94.0924 21.3616 94.7984 21.7739 95.6063 22.0831C96.4143 22.3923 97.2701 22.5469 98.1746 22.5469C98.8854 22.5469 99.5691 22.448 100.226 22.2509C100.883 22.0538 101.481 21.7767 102.019 21.4194V26.549C101.416 26.737 100.791 26.8825 100.145 26.9856C99.4997 27.0907 98.8423 27.1423 98.1746 27.1423Z"
    fill="#48ABE2" />
  <path
    d="M12.1434 27.1423C10.4491 27.1423 8.86547 26.87 7.39167 26.3247C5.91787 25.7801 4.63619 25.0378 3.54732 24.0984C2.45846 23.159 1.59502 22.065 0.957011 20.815C0.319004 19.5656 0 18.2265 0 16.7982C0 15.3707 0.318295 14.0266 0.957011 12.7676C1.59502 11.5092 2.45846 10.4138 3.54732 9.48415C4.63619 8.55378 5.91716 7.81701 7.39167 7.27175C8.86547 6.72718 10.4491 6.4542 12.1434 6.4542C13.815 6.4542 15.3824 6.72648 16.8455 7.27175C18.308 7.81701 19.584 8.55448 20.6729 9.48415C21.7617 10.4145 22.6252 11.5092 23.2632 12.7676C23.9012 14.0266 24.2202 15.3707 24.2202 16.7982V27.1423H18.8418V16.8163C18.8418 16.0287 18.6653 15.2836 18.3137 14.5796C17.9613 13.8762 17.4772 13.262 16.8618 12.7362C16.2458 12.2112 15.5362 11.7989 14.7337 11.4981C13.9305 11.1979 13.0671 11.0482 12.1434 11.0482C11.2197 11.0482 10.3449 11.1986 9.52049 11.4981C8.69533 11.7982 7.97509 12.2105 7.35906 12.7348C6.74303 13.2599 6.25885 13.8734 5.90724 14.5761C5.55492 15.2787 5.37911 16.0239 5.37911 16.8115C5.37911 17.5991 5.55492 18.3393 5.90724 19.0329C6.25885 19.7265 6.74303 20.331 7.35906 20.8463C7.97439 21.3616 8.69533 21.7739 9.52049 22.0831C10.3456 22.3923 11.2197 22.5469 12.1434 22.5469C12.8693 22.5469 13.5676 22.448 14.2389 22.2509C14.9095 22.0538 15.5199 21.7767 16.07 21.4194V26.549C15.454 26.737 14.816 26.8825 14.156 26.9856C13.4967 27.0907 12.8254 27.1423 12.1434 27.1423Z"
    fill="#1A1A1A" />
  <path
    d="M66.5595 6.2726H61.4731V0.399181H56.0093V27.1423H61.4731V10.9196H63.6523H67.0046C67.0046 10.9196 67.0751 8.01884 69.6331 6.21553L66.5595 6.2726Z"
    fill="#1A1A1A" />
  <path
    d="M10.9489 34.5583V35.4623H8.62091V36.8943H10.4049V37.7823H8.62091V40.1423H7.50091V34.5583H10.9489ZM15.2951 40.1983C14.7724 40.1983 14.2924 40.0757 13.8551 39.8303C13.4178 39.585 13.0711 39.2463 12.8151 38.8143C12.5591 38.377 12.4311 37.8837 12.4311 37.3343C12.4311 36.7903 12.5591 36.3023 12.8151 35.8703C13.0711 35.433 13.4178 35.0917 13.8551 34.8463C14.2924 34.601 14.7724 34.4783 15.2951 34.4783C15.8231 34.4783 16.3031 34.601 16.7351 34.8463C17.1724 35.0917 17.5164 35.433 17.7671 35.8703C18.0231 36.3023 18.1511 36.7903 18.1511 37.3343C18.1511 37.8837 18.0231 38.377 17.7671 38.8143C17.5164 39.2463 17.1724 39.585 16.7351 39.8303C16.2978 40.0757 15.8178 40.1983 15.2951 40.1983ZM15.2951 39.1983C15.6311 39.1983 15.9271 39.1237 16.1831 38.9743C16.4391 38.8197 16.6391 38.601 16.7831 38.3183C16.9271 38.0357 16.9991 37.7077 16.9991 37.3343C16.9991 36.961 16.9271 36.6357 16.7831 36.3583C16.6391 36.0757 16.4391 35.8597 16.1831 35.7103C15.9271 35.561 15.6311 35.4863 15.2951 35.4863C14.9591 35.4863 14.6604 35.561 14.3991 35.7103C14.1431 35.8597 13.9431 36.0757 13.7991 36.3583C13.6551 36.6357 13.5831 36.961 13.5831 37.3343C13.5831 37.7077 13.6551 38.0357 13.7991 38.3183C13.9431 38.601 14.1431 38.8197 14.3991 38.9743C14.6604 39.1237 14.9591 39.1983 15.2951 39.1983ZM22.8243 40.1423L21.5923 37.9663H21.0643V40.1423H19.9443V34.5583H22.0403C22.4723 34.5583 22.8403 34.6357 23.1443 34.7903C23.4483 34.9397 23.675 35.145 23.8243 35.4063C23.979 35.6623 24.0563 35.9503 24.0563 36.2703C24.0563 36.6383 23.9497 36.9717 23.7363 37.2703C23.523 37.5637 23.2057 37.7663 22.7843 37.8783L24.1203 40.1423H22.8243ZM21.0643 37.1263H22.0003C22.3043 37.1263 22.531 37.0543 22.6803 36.9103C22.8297 36.761 22.9043 36.5557 22.9043 36.2943C22.9043 36.0383 22.8297 35.841 22.6803 35.7023C22.531 35.5583 22.3043 35.4863 22.0003 35.4863H21.0643V37.1263ZM32.9676 36.2863C32.9676 36.585 32.8956 36.865 32.7516 37.1263C32.6129 37.3877 32.3916 37.5983 32.0876 37.7583C31.7889 37.9183 31.4103 37.9983 30.9516 37.9983H30.0156V40.1423H28.8956V34.5583H30.9516C31.3836 34.5583 31.7516 34.633 32.0556 34.7823C32.3596 34.9317 32.5863 35.137 32.7356 35.3983C32.8903 35.6597 32.9676 35.9557 32.9676 36.2863ZM30.9036 37.0943C31.2129 37.0943 31.4423 37.025 31.5916 36.8863C31.7409 36.7423 31.8156 36.5423 31.8156 36.2863C31.8156 35.7423 31.5116 35.4703 30.9036 35.4703H30.0156V37.0943H30.9036ZM37.6028 40.1423L36.3708 37.9663H35.8428V40.1423H34.7228V34.5583H36.8188C37.2508 34.5583 37.6188 34.6357 37.9228 34.7903C38.2268 34.9397 38.4534 35.145 38.6028 35.4063C38.7574 35.6623 38.8348 35.9503 38.8348 36.2703C38.8348 36.6383 38.7281 36.9717 38.5148 37.2703C38.3014 37.5637 37.9841 37.7663 37.5628 37.8783L38.8988 40.1423H37.6028ZM35.8428 37.1263H36.7788C37.0828 37.1263 37.3094 37.0543 37.4588 36.9103C37.6081 36.761 37.6828 36.5557 37.6828 36.2943C37.6828 36.0383 37.6081 35.841 37.4588 35.7023C37.3094 35.5583 37.0828 35.4863 36.7788 35.4863H35.8428V37.1263ZM43.3998 40.1983C42.8771 40.1983 42.3971 40.0757 41.9598 39.8303C41.5224 39.585 41.1758 39.2463 40.9198 38.8143C40.6638 38.377 40.5358 37.8837 40.5358 37.3343C40.5358 36.7903 40.6638 36.3023 40.9198 35.8703C41.1758 35.433 41.5224 35.0917 41.9598 34.8463C42.3971 34.601 42.8771 34.4783 43.3998 34.4783C43.9278 34.4783 44.4078 34.601 44.8398 34.8463C45.2771 35.0917 45.6211 35.433 45.8718 35.8703C46.1278 36.3023 46.2558 36.7903 46.2558 37.3343C46.2558 37.8837 46.1278 38.377 45.8718 38.8143C45.6211 39.2463 45.2771 39.585 44.8398 39.8303C44.4024 40.0757 43.9224 40.1983 43.3998 40.1983ZM43.3998 39.1983C43.7358 39.1983 44.0318 39.1237 44.2878 38.9743C44.5438 38.8197 44.7438 38.601 44.8878 38.3183C45.0318 38.0357 45.1038 37.7077 45.1038 37.3343C45.1038 36.961 45.0318 36.6357 44.8878 36.3583C44.7438 36.0757 44.5438 35.8597 44.2878 35.7103C44.0318 35.561 43.7358 35.4863 43.3998 35.4863C43.0638 35.4863 42.7651 35.561 42.5038 35.7103C42.2478 35.8597 42.0478 36.0757 41.9038 36.3583C41.7598 36.6357 41.6878 36.961 41.6878 37.3343C41.6878 37.7077 41.7598 38.0357 41.9038 38.3183C42.0478 38.601 42.2478 38.8197 42.5038 38.9743C42.7651 39.1237 43.0638 39.1983 43.3998 39.1983ZM51.497 34.5583V35.4623H49.169V36.8943H50.953V37.7823H49.169V40.1423H48.049V34.5583H51.497ZM54.3712 35.4623V36.8623H56.2512V37.7503H54.3712V39.2303H56.4912V40.1423H53.2512V34.5503H56.4912V35.4623H54.3712ZM60.397 40.1983C60.0077 40.1983 59.6557 40.1317 59.341 39.9983C59.0317 39.865 58.7864 39.673 58.605 39.4223C58.4237 39.1717 58.3304 38.8757 58.325 38.5343H59.525C59.541 38.7637 59.621 38.945 59.765 39.0783C59.9144 39.2117 60.117 39.2783 60.373 39.2783C60.6344 39.2783 60.8397 39.217 60.989 39.0943C61.1384 38.9663 61.213 38.801 61.213 38.5983C61.213 38.433 61.1624 38.297 61.061 38.1903C60.9597 38.0837 60.8317 38.001 60.677 37.9423C60.5277 37.8783 60.3197 37.809 60.053 37.7343C59.6904 37.6277 59.3944 37.5237 59.165 37.4223C58.941 37.3157 58.7464 37.1583 58.581 36.9503C58.421 36.737 58.341 36.4543 58.341 36.1023C58.341 35.7717 58.4237 35.4837 58.589 35.2383C58.7544 34.993 58.9864 34.8063 59.285 34.6783C59.5837 34.545 59.925 34.4783 60.309 34.4783C60.885 34.4783 61.3517 34.6197 61.709 34.9023C62.0717 35.1797 62.2717 35.569 62.309 36.0703H61.077C61.0664 35.8783 60.9837 35.721 60.829 35.5983C60.6797 35.4703 60.4797 35.4063 60.229 35.4063C60.0104 35.4063 59.8344 35.4623 59.701 35.5743C59.573 35.6863 59.509 35.849 59.509 36.0623C59.509 36.2117 59.557 36.337 59.653 36.4383C59.7544 36.5343 59.877 36.6143 60.021 36.6783C60.1704 36.737 60.3784 36.8063 60.645 36.8863C61.0077 36.993 61.3037 37.0997 61.533 37.2063C61.7624 37.313 61.9597 37.473 62.125 37.6863C62.2904 37.8997 62.373 38.1797 62.373 38.5263C62.373 38.825 62.2957 39.1023 62.141 39.3583C61.9864 39.6143 61.7597 39.8197 61.461 39.9743C61.1624 40.1237 60.8077 40.1983 60.397 40.1983ZM66.232 40.1983C65.8427 40.1983 65.4907 40.1317 65.176 39.9983C64.8667 39.865 64.6214 39.673 64.44 39.4223C64.2587 39.1717 64.1654 38.8757 64.16 38.5343H65.36C65.376 38.7637 65.456 38.945 65.6 39.0783C65.7494 39.2117 65.952 39.2783 66.208 39.2783C66.4694 39.2783 66.6747 39.217 66.824 39.0943C66.9734 38.9663 67.048 38.801 67.048 38.5983C67.048 38.433 66.9974 38.297 66.896 38.1903C66.7947 38.0837 66.6667 38.001 66.512 37.9423C66.3627 37.8783 66.1547 37.809 65.888 37.7343C65.5254 37.6277 65.2294 37.5237 65 37.4223C64.776 37.3157 64.5814 37.1583 64.416 36.9503C64.256 36.737 64.176 36.4543 64.176 36.1023C64.176 35.7717 64.2587 35.4837 64.424 35.2383C64.5894 34.993 64.8214 34.8063 65.12 34.6783C65.4187 34.545 65.76 34.4783 66.144 34.4783C66.72 34.4783 67.1867 34.6197 67.544 34.9023C67.9067 35.1797 68.1067 35.569 68.144 36.0703H66.912C66.9014 35.8783 66.8187 35.721 66.664 35.5983C66.5147 35.4703 66.3147 35.4063 66.064 35.4063C65.8454 35.4063 65.6694 35.4623 65.536 35.5743C65.408 35.6863 65.344 35.849 65.344 36.0623C65.344 36.2117 65.392 36.337 65.488 36.4383C65.5894 36.5343 65.712 36.6143 65.856 36.6783C66.0054 36.737 66.2134 36.8063 66.48 36.8863C66.8427 36.993 67.1387 37.0997 67.368 37.2063C67.5974 37.313 67.7947 37.473 67.96 37.6863C68.1254 37.8997 68.208 38.1797 68.208 38.5263C68.208 38.825 68.1307 39.1023 67.976 39.3583C67.8214 39.6143 67.5947 39.8197 67.296 39.9743C66.9974 40.1237 66.6427 40.1983 66.232 40.1983ZM71.259 34.5583V40.1423H70.139V34.5583H71.259ZM75.9176 40.1983C75.3949 40.1983 74.9149 40.0757 74.4776 39.8303C74.0403 39.585 73.6936 39.2463 73.4376 38.8143C73.1816 38.377 73.0536 37.8837 73.0536 37.3343C73.0536 36.7903 73.1816 36.3023 73.4376 35.8703C73.6936 35.433 74.0403 35.0917 74.4776 34.8463C74.9149 34.601 75.3949 34.4783 75.9176 34.4783C76.4456 34.4783 76.9256 34.601 77.3576 34.8463C77.7949 35.0917 78.1389 35.433 78.3896 35.8703C78.6456 36.3023 78.7736 36.7903 78.7736 37.3343C78.7736 37.8837 78.6456 38.377 78.3896 38.8143C78.1389 39.2463 77.7949 39.585 77.3576 39.8303C76.9203 40.0757 76.4403 40.1983 75.9176 40.1983ZM75.9176 39.1983C76.2536 39.1983 76.5496 39.1237 76.8056 38.9743C77.0616 38.8197 77.2616 38.601 77.4056 38.3183C77.5496 38.0357 77.6216 37.7077 77.6216 37.3343C77.6216 36.961 77.5496 36.6357 77.4056 36.3583C77.2616 36.0757 77.0616 35.8597 76.8056 35.7103C76.5496 35.561 76.2536 35.4863 75.9176 35.4863C75.5816 35.4863 75.2829 35.561 75.0216 35.7103C74.7656 35.8597 74.5656 36.0757 74.4216 36.3583C74.2776 36.6357 74.2056 36.961 74.2056 37.3343C74.2056 37.7077 74.2776 38.0357 74.4216 38.3183C74.5656 38.601 74.7656 38.8197 75.0216 38.9743C75.2829 39.1237 75.5816 39.1983 75.9176 39.1983ZM85.3428 40.1423H84.2228L81.6868 36.3103V40.1423H80.5668V34.5503H81.6868L84.2228 38.3903V34.5503H85.3428V40.1423ZM90.8337 39.0783H88.6097L88.2417 40.1423H87.0657L89.0737 34.5503H90.3777L92.3857 40.1423H91.2017L90.8337 39.0783ZM90.5297 38.1823L89.7217 35.8463L88.9137 38.1823H90.5297ZM95.2162 39.2543H97.0562V40.1423H94.0962V34.5583H95.2162V39.2543ZM100.656 40.1983C100.267 40.1983 99.9148 40.1317 99.6001 39.9983C99.2908 39.865 99.0454 39.673 98.8641 39.4223C98.6828 39.1717 98.5894 38.8757 98.5841 38.5343H99.7841C99.8001 38.7637 99.8801 38.945 100.024 39.0783C100.173 39.2117 100.376 39.2783 100.632 39.2783C100.893 39.2783 101.099 39.217 101.248 39.0943C101.397 38.9663 101.472 38.801 101.472 38.5983C101.472 38.433 101.421 38.297 101.32 38.1903C101.219 38.0837 101.091 38.001 100.936 37.9423C100.787 37.8783 100.579 37.809 100.312 37.7343C99.9494 37.6277 99.6534 37.5237 99.4241 37.4223C99.2001 37.3157 99.0054 37.1583 98.8401 36.9503C98.6801 36.737 98.6001 36.4543 98.6001 36.1023C98.6001 35.7717 98.6828 35.4837 98.8481 35.2383C99.0134 34.993 99.2454 34.8063 99.5441 34.6783C99.8428 34.545 100.184 34.4783 100.568 34.4783C101.144 34.4783 101.611 34.6197 101.968 34.9023C102.331 35.1797 102.531 35.569 102.568 36.0703H101.336C101.325 35.8783 101.243 35.721 101.088 35.5983C100.939 35.4703 100.739 35.4063 100.488 35.4063C100.269 35.4063 100.093 35.4623 99.9601 35.5743C99.8321 35.6863 99.7681 35.849 99.7681 36.0623C99.7681 36.2117 99.8161 36.337 99.9121 36.4383C100.013 36.5343 100.136 36.6143 100.28 36.6783C100.429 36.737 100.637 36.8063 100.904 36.8863C101.267 36.993 101.563 37.0997 101.792 37.2063C102.021 37.313 102.219 37.473 102.384 37.6863C102.549 37.8997 102.632 38.1797 102.632 38.5263C102.632 38.825 102.555 39.1023 102.4 39.3583C102.245 39.6143 102.019 39.8197 101.72 39.9743C101.421 40.1237 101.067 40.1983 100.656 40.1983Z"
    fill="#48ABE2" />
</svg>