<svg width="48" height="44" viewBox="0 0 48 44" fill="none" xmlns="http://www.w3.org/2000/svg">
<g clip-path="url(#clip0_184_13380)">
<path d="M7.90751 38.4277H37.5954C43.3526 38.4277 48 33.7803 48 28.0231V15.8843C48 11.5144 44.4624 7.97681 40.0925 7.97681H7.90751C3.53757 7.97681 0 11.5144 0 15.8843V30.5202C0.0693642 34.8901 3.60694 38.4277 7.90751 38.4277Z" fill="#A6A7DC"/>
<path d="M13.457 16.7168H34.6131V20.8093H13.457V16.7168ZM13.457 25.5954H30.9368V29.6879H13.457V25.5954Z" fill="#8B8CC7"/>
<path d="M19.2823 36.2774L9.08578 43.5607C8.25341 44.1849 7.07422 43.5607 7.07422 42.5202V34.8901L19.2823 36.2774Z" fill="#A6A7DC"/>
<path d="M14.9127 10.5435L12.1382 3.3296C11.4445 1.45677 9.29423 0.555032 7.4214 1.24867C5.54856 1.94232 4.64683 4.0926 5.34047 5.96544L9.71041 17.2718C10.1266 18.3123 11.2364 18.7978 12.2769 18.3816C13.3174 17.9654 13.8029 16.8556 13.3867 15.8151L9.50232 5.89607" stroke="#F7C6C8" stroke-width="2" stroke-miterlimit="10" stroke-linecap="round"/>
</g>
<defs>
<clipPath id="clip0_184_13380">
<rect width="48" height="43.8382" fill="white"/>
</clipPath>
</defs>
</svg>
