<svg width="64" height="64" viewBox="0 0 64 64" fill="none" xmlns="http://www.w3.org/2000/svg">
<rect width="64" height="64" rx="32" fill="#FEEEE9"/>
<path d="M30.2898 23.8602L21.8198 38.0002C21.6451 38.3026 21.5527 38.6455 21.5518 38.9947C21.5508 39.3439 21.6413 39.6873 21.8142 39.9907C21.9871 40.2941 22.2365 40.547 22.5375 40.7241C22.8385 40.9012 23.1806 40.9964 23.5298 41.0002H40.4698C40.819 40.9964 41.1611 40.9012 41.4621 40.7241C41.7631 40.547 42.0124 40.2941 42.1854 39.9907C42.3583 39.6873 42.4488 39.3439 42.4478 38.9947C42.4468 38.6455 42.3544 38.3026 42.1798 38.0002L33.7098 23.8602C33.5315 23.5663 33.2805 23.3233 32.981 23.1547C32.6814 22.9861 32.3435 22.8975 31.9998 22.8975C31.656 22.8975 31.3181 22.9861 31.0186 23.1547C30.7191 23.3233 30.468 23.5663 30.2898 23.8602V23.8602Z" stroke="#FF7777" stroke-width="2" stroke-linecap="round" stroke-linejoin="round"/>
<path d="M32 29V33" stroke="#FF7777" stroke-width="2" stroke-linecap="round" stroke-linejoin="round"/>
<path d="M32 37H32.01" stroke="#FF7777" stroke-width="2" stroke-linecap="round" stroke-linejoin="round"/>
</svg>
