<svg width="21" height="21" viewBox="0 0 21 21" fill="none" xmlns="http://www.w3.org/2000/svg">
<path d="M12.917 2.1665H8.08366C7.517 2.1665 6.71699 2.49984 6.31699 2.89984L2.90033 6.31651C2.50033 6.71651 2.16699 7.51651 2.16699 8.08318V12.9165C2.16699 13.4832 2.50033 14.2832 2.90033 14.6832L6.31699 18.0998C6.71699 18.4998 7.517 18.8332 8.08366 18.8332H12.917C13.4837 18.8332 14.2837 18.4998 14.6837 18.0998L18.1003 14.6832C18.5003 14.2832 18.8337 13.4832 18.8337 12.9165V8.08318C18.8337 7.51651 18.5003 6.71651 18.1003 6.31651L14.6837 2.89984C14.2837 2.49984 13.4837 2.1665 12.917 2.1665Z" stroke="#FF7777" stroke-width="1.5" stroke-linecap="round" stroke-linejoin="round"/>
<path d="M7.58301 13.4168L13.4163 7.5835" stroke="#FF7777" stroke-width="1.5" stroke-linecap="round" stroke-linejoin="round"/>
<path d="M13.4163 13.4168L7.58301 7.5835" stroke="#FF7777" stroke-width="1.5" stroke-linecap="round" stroke-linejoin="round"/>
</svg>
