<svg width="110" height="44" viewBox="0 0 110 44" fill="none" xmlns="http://www.w3.org/2000/svg">
<g clip-path="url(#clip0_574_25178)">
<path d="M6.63349 15.204C6.57154 15.1992 6.53955 15.1965 6.53955 15.1965C10.3017 19.9804 12.9864 16.0106 13.2253 15.6355C13.2464 15.6369 13.2675 15.6382 13.2886 15.6403C13.2886 15.6403 11.1118 10.7781 6.63349 15.204Z" fill="#48ABE2"/>
<path d="M20.8761 9.26496C20.6929 9.11249 20.5037 8.96546 20.3104 8.82319C18.6481 6.44894 13.6662 -0.177611 9.9802 0.0517824C9.9271 0.0476982 9.87265 0.0456543 9.81819 0.0456543C8.89858 0.0456543 8.15254 0.62084 8.15254 1.3308C8.15254 2.04077 8.89858 2.61595 9.81819 2.61595C10.422 2.61595 10.9509 2.36818 11.2429 1.9972C12.283 2.21435 14.6606 3.0019 16.4726 5.79275C15.1242 4.86973 13.5429 4.06787 12.3769 4.32381C11.8698 4.33266 11.4627 4.61923 11.4627 4.97115C11.4627 5.3292 11.8827 5.61917 12.4007 5.61917C12.8194 5.61917 13.1733 5.42994 13.2945 5.16787C14.1719 5.19578 16.4148 5.55995 17.7381 8.40252C18.1791 9.65092 18.5127 11.1382 18.6781 12.9114C18.7319 12.9911 18.7843 13.0721 18.8347 13.1544C19.4371 14.134 19.7801 15.2612 19.7801 16.4619C19.7801 20.2248 16.4073 23.275 12.2469 23.275C9.14159 23.275 6.47531 21.576 5.32222 19.15C4.76881 18.1358 3.95266 16.4483 3.6552 14.8528C3.6552 14.8528 5.39097 12.9155 6.99128 11.5807C7.20297 11.4044 7.41262 11.2383 7.61479 11.0885C7.9776 10.8326 8.36696 10.6059 8.77878 10.4126C9.81683 9.92523 10.9958 9.64956 12.2469 9.64956C13.8853 9.64956 15.4019 10.1226 16.6381 10.9265C16.3944 8.58223 15.487 7.23309 14.5497 6.45778C13.8152 6.34343 13.059 6.28557 12.2796 6.28557C10.5724 6.28557 8.9755 6.55376 7.49022 7.08947C6.00495 7.62586 4.713 8.35147 3.61572 9.26632C2.51844 10.1812 1.64784 11.258 1.00458 12.4969C0.361326 13.7358 0.0400391 15.0577 0.0400391 16.4619C0.0400391 17.8669 0.361326 19.184 1.00458 20.4134C1.64784 21.6427 2.51776 22.7195 3.61572 23.6439C4.71368 24.5683 6.00495 25.2987 7.49022 25.8344C8.9755 26.3708 10.5724 26.6383 12.2796 26.6383C12.9664 26.6383 13.643 26.5879 14.308 26.4858C14.9731 26.3844 15.6163 26.2408 16.2371 26.0563C17.6537 25.5866 18.5236 25.2075 19.0252 24.9577V26.639H24.4524V16.4619C24.4524 15.057 24.1311 13.7351 23.4879 12.4969C22.8446 11.2587 21.974 10.1798 20.8761 9.26496Z" fill="#1A1A1A"/>
<path d="M30.531 11.8986C31.0974 10.8149 31.8598 9.86465 32.8189 9.04714C33.7773 8.2303 34.9052 7.58705 36.2019 7.11874C37.4979 6.65042 38.8763 6.41626 40.3364 6.41626C41.8183 6.41626 43.2069 6.65042 44.5036 7.11874C45.7997 7.58705 46.933 8.2303 47.903 9.04714C48.8723 9.86465 49.6354 10.8149 50.1908 11.8986C50.7463 12.9822 51.024 14.1394 51.024 15.3701V26.6383H45.6962V15.3898C45.6962 14.7847 45.5539 14.2075 45.2694 13.6575C44.9856 13.1075 44.603 12.631 44.1218 12.2273C43.6405 11.8237 43.0728 11.5031 42.4173 11.2648C41.7618 11.0266 41.062 10.9068 40.3194 10.9068C39.5761 10.9068 38.8818 11.0259 38.2372 11.2648C37.5925 11.5031 37.0296 11.8244 36.549 12.2273C36.0678 12.631 35.6914 13.1075 35.4177 13.6575C35.1448 14.2075 35.008 14.7847 35.008 15.3898V26.6383H29.6802V15.3701C29.6815 14.1394 29.964 12.9822 30.531 11.8986Z" fill="#1A1A1A"/>
<path d="M73.4167 20.1907C73.4167 20.7237 73.6399 21.1825 74.0865 21.5684C74.533 21.9544 75.0721 22.147 75.7045 22.147C76.3361 22.147 76.8814 21.9544 77.3388 21.5684C77.7962 21.1825 78.0249 20.7237 78.0249 20.1907C78.0249 19.8422 77.9215 19.5298 77.7145 19.2541C77.5069 18.9784 77.251 18.7402 76.9467 18.538C76.6411 18.3549 76.2381 18.1616 75.7371 17.9594C75.2355 17.7572 74.6909 17.5374 74.1028 17.2984C73.5147 17.0602 72.915 16.7845 72.3051 16.4721C71.6945 16.1603 71.1445 15.7968 70.6544 15.3837C70.1643 14.9705 69.7661 14.4885 69.4611 13.9372C69.1555 13.3865 69.0037 12.7528 69.0037 12.036C69.0037 11.2648 69.1821 10.5392 69.5394 9.85983C69.8968 9.1805 70.3733 8.58353 70.9689 8.06893C71.5645 7.55501 72.2683 7.15067 73.0804 6.85662C73.8925 6.56324 74.7563 6.41553 75.6711 6.41553C76.5866 6.41553 77.4525 6.56256 78.27 6.85662C79.0868 7.15067 79.8009 7.55501 80.4108 8.06893C81.0207 8.58353 81.4999 9.1805 81.8491 9.85983C82.1976 10.5398 82.3718 11.2648 82.3718 12.036H77.0767C77.0767 11.7311 76.9345 11.4669 76.652 11.2423C76.3688 11.0184 76.0414 10.9061 75.6711 10.9061C75.3001 10.9061 74.985 11.0211 74.7229 11.2498C74.4615 11.4785 74.3308 11.7494 74.3308 12.0605C74.3308 12.5377 74.5711 12.8767 75.0524 13.0782C75.9924 13.5002 76.9494 13.8902 77.9228 14.2476C78.8962 14.6049 79.7873 15.0311 80.5966 15.5259C81.4053 16.0208 82.0676 16.6355 82.5815 17.3686C83.0954 18.1023 83.3527 19.0465 83.3527 20.2009C83.3527 21.0811 83.1512 21.9156 82.7483 22.7038C82.3446 23.4928 81.8001 24.1755 81.1139 24.7527C80.4278 25.3306 79.6157 25.7887 78.6791 26.1277C77.7418 26.4667 76.7507 26.6362 75.7045 26.6362C74.6582 26.6362 73.6726 26.4667 72.7462 26.1264C71.8197 25.7867 71.0138 25.3272 70.3277 24.7486C69.6415 24.17 69.0963 23.486 68.6933 22.6963C68.2897 21.9067 68.0889 21.0708 68.0889 20.1894H73.4167V20.1907Z" fill="#48ABE2"/>
<path d="M97.9965 26.6376C96.3186 26.6376 94.7496 26.3714 93.2895 25.8384C91.8294 25.3061 90.5599 24.5805 89.4817 23.6623C88.4028 22.744 87.5479 21.6746 86.9155 20.4528C86.2831 19.2316 85.9673 17.9226 85.9673 16.5265C85.9673 15.1311 86.2831 13.8174 86.9155 12.5867C87.5472 11.3567 88.4028 10.2859 89.4817 9.37722C90.5606 8.46782 91.8294 7.74764 93.2895 7.21466C94.7489 6.68236 96.3179 6.41553 97.9965 6.41553C99.6519 6.41553 101.205 6.68168 102.654 7.21466C104.104 7.74764 105.368 8.4685 106.446 9.37722C107.525 10.2866 108.38 11.3567 109.011 12.5867C109.643 13.8174 109.96 15.1311 109.96 16.5265V26.6376H104.632V16.5442C104.632 15.7744 104.457 15.046 104.109 14.3579C103.761 13.6704 103.281 13.07 102.671 12.5561C102.06 12.0428 101.358 11.6398 100.563 11.3458C99.767 11.0524 98.912 10.9061 97.9972 10.9061C97.0823 10.9061 96.2158 11.0531 95.399 11.3458C94.5815 11.6392 93.8681 12.0421 93.2582 12.5547C92.6476 13.0679 92.1684 13.6676 91.8199 14.3545C91.4714 15.0413 91.2971 15.7696 91.2971 16.5395C91.2971 17.3093 91.4714 18.0329 91.8199 18.7109C92.1684 19.3889 92.6476 19.9797 93.2582 20.4834C93.8681 20.9871 94.5821 21.3901 95.399 21.6923C96.2158 21.9946 97.0823 22.1457 97.9972 22.1457C98.716 22.1457 99.4076 22.049 100.073 21.8564C100.737 21.6637 101.342 21.3928 101.887 21.0436V26.0576C101.276 26.2414 100.644 26.3837 99.9909 26.4844C99.3368 26.5872 98.6717 26.6376 97.9965 26.6376Z" fill="#48ABE2"/>
<path d="M66.5434 6.47079H61.5832V0.795166H56.2554V26.6377H61.5832V10.9613H63.7076H66.977C66.977 10.9613 67.0457 8.15822 69.5405 6.41565L66.5434 6.47079Z" fill="#1A1A1A"/>
</g>
<path d="M10.9489 34.0991V35.0031H8.62091V36.4351H10.4049V37.3231H8.62091V39.6831H7.50091V34.0991H10.9489ZM15.2951 39.7391C14.7724 39.7391 14.2924 39.6164 13.8551 39.3711C13.4178 39.1258 13.0711 38.7871 12.8151 38.3551C12.5591 37.9178 12.4311 37.4244 12.4311 36.8751C12.4311 36.3311 12.5591 35.8431 12.8151 35.4111C13.0711 34.9738 13.4178 34.6324 13.8551 34.3871C14.2924 34.1418 14.7724 34.0191 15.2951 34.0191C15.8231 34.0191 16.3031 34.1418 16.7351 34.3871C17.1724 34.6324 17.5164 34.9738 17.7671 35.4111C18.0231 35.8431 18.1511 36.3311 18.1511 36.8751C18.1511 37.4244 18.0231 37.9178 17.7671 38.3551C17.5164 38.7871 17.1724 39.1258 16.7351 39.3711C16.2978 39.6164 15.8178 39.7391 15.2951 39.7391ZM15.2951 38.7391C15.6311 38.7391 15.9271 38.6644 16.1831 38.5151C16.4391 38.3604 16.6391 38.1418 16.7831 37.8591C16.9271 37.5764 16.9991 37.2484 16.9991 36.8751C16.9991 36.5018 16.9271 36.1764 16.7831 35.8991C16.6391 35.6164 16.4391 35.4004 16.1831 35.2511C15.9271 35.1018 15.6311 35.0271 15.2951 35.0271C14.9591 35.0271 14.6604 35.1018 14.3991 35.2511C14.1431 35.4004 13.9431 35.6164 13.7991 35.8991C13.6551 36.1764 13.5831 36.5018 13.5831 36.8751C13.5831 37.2484 13.6551 37.5764 13.7991 37.8591C13.9431 38.1418 14.1431 38.3604 14.3991 38.5151C14.6604 38.6644 14.9591 38.7391 15.2951 38.7391ZM22.8243 39.6831L21.5923 37.5071H21.0643V39.6831H19.9443V34.0991H22.0403C22.4723 34.0991 22.8403 34.1764 23.1443 34.3311C23.4483 34.4804 23.675 34.6858 23.8243 34.9471C23.979 35.2031 24.0563 35.4911 24.0563 35.8111C24.0563 36.1791 23.9497 36.5124 23.7363 36.8111C23.523 37.1044 23.2057 37.3071 22.7843 37.4191L24.1203 39.6831H22.8243ZM21.0643 36.6671H22.0003C22.3043 36.6671 22.531 36.5951 22.6803 36.4511C22.8297 36.3018 22.9043 36.0964 22.9043 35.8351C22.9043 35.5791 22.8297 35.3818 22.6803 35.2431C22.531 35.0991 22.3043 35.0271 22.0003 35.0271H21.0643V36.6671ZM32.9676 35.8271C32.9676 36.1258 32.8956 36.4058 32.7516 36.6671C32.6129 36.9284 32.3916 37.1391 32.0876 37.2991C31.7889 37.4591 31.4103 37.5391 30.9516 37.5391H30.0156V39.6831H28.8956V34.0991H30.9516C31.3836 34.0991 31.7516 34.1738 32.0556 34.3231C32.3596 34.4724 32.5863 34.6778 32.7356 34.9391C32.8903 35.2004 32.9676 35.4964 32.9676 35.8271ZM30.9036 36.6351C31.2129 36.6351 31.4423 36.5658 31.5916 36.4271C31.7409 36.2831 31.8156 36.0831 31.8156 35.8271C31.8156 35.2831 31.5116 35.0111 30.9036 35.0111H30.0156V36.6351H30.9036ZM37.6028 39.6831L36.3708 37.5071H35.8428V39.6831H34.7228V34.0991H36.8188C37.2508 34.0991 37.6188 34.1764 37.9228 34.3311C38.2268 34.4804 38.4534 34.6858 38.6028 34.9471C38.7574 35.2031 38.8348 35.4911 38.8348 35.8111C38.8348 36.1791 38.7281 36.5124 38.5148 36.8111C38.3014 37.1044 37.9841 37.3071 37.5628 37.4191L38.8988 39.6831H37.6028ZM35.8428 36.6671H36.7788C37.0828 36.6671 37.3094 36.5951 37.4588 36.4511C37.6081 36.3018 37.6828 36.0964 37.6828 35.8351C37.6828 35.5791 37.6081 35.3818 37.4588 35.2431C37.3094 35.0991 37.0828 35.0271 36.7788 35.0271H35.8428V36.6671ZM43.3998 39.7391C42.8771 39.7391 42.3971 39.6164 41.9598 39.3711C41.5224 39.1258 41.1758 38.7871 40.9198 38.3551C40.6638 37.9178 40.5358 37.4244 40.5358 36.8751C40.5358 36.3311 40.6638 35.8431 40.9198 35.4111C41.1758 34.9738 41.5224 34.6324 41.9598 34.3871C42.3971 34.1418 42.8771 34.0191 43.3998 34.0191C43.9278 34.0191 44.4078 34.1418 44.8398 34.3871C45.2771 34.6324 45.6211 34.9738 45.8718 35.4111C46.1278 35.8431 46.2558 36.3311 46.2558 36.8751C46.2558 37.4244 46.1278 37.9178 45.8718 38.3551C45.6211 38.7871 45.2771 39.1258 44.8398 39.3711C44.4024 39.6164 43.9224 39.7391 43.3998 39.7391ZM43.3998 38.7391C43.7358 38.7391 44.0318 38.6644 44.2878 38.5151C44.5438 38.3604 44.7438 38.1418 44.8878 37.8591C45.0318 37.5764 45.1038 37.2484 45.1038 36.8751C45.1038 36.5018 45.0318 36.1764 44.8878 35.8991C44.7438 35.6164 44.5438 35.4004 44.2878 35.2511C44.0318 35.1018 43.7358 35.0271 43.3998 35.0271C43.0638 35.0271 42.7651 35.1018 42.5038 35.2511C42.2478 35.4004 42.0478 35.6164 41.9038 35.8991C41.7598 36.1764 41.6878 36.5018 41.6878 36.8751C41.6878 37.2484 41.7598 37.5764 41.9038 37.8591C42.0478 38.1418 42.2478 38.3604 42.5038 38.5151C42.7651 38.6644 43.0638 38.7391 43.3998 38.7391ZM51.497 34.0991V35.0031H49.169V36.4351H50.953V37.3231H49.169V39.6831H48.049V34.0991H51.497ZM54.3712 35.0031V36.4031H56.2512V37.2911H54.3712V38.7711H56.4912V39.6831H53.2512V34.0911H56.4912V35.0031H54.3712ZM60.397 39.7391C60.0077 39.7391 59.6557 39.6724 59.341 39.5391C59.0317 39.4058 58.7864 39.2138 58.605 38.9631C58.4237 38.7124 58.3304 38.4164 58.325 38.0751H59.525C59.541 38.3044 59.621 38.4858 59.765 38.6191C59.9144 38.7524 60.117 38.8191 60.373 38.8191C60.6344 38.8191 60.8397 38.7578 60.989 38.6351C61.1384 38.5071 61.213 38.3418 61.213 38.1391C61.213 37.9738 61.1624 37.8378 61.061 37.7311C60.9597 37.6244 60.8317 37.5418 60.677 37.4831C60.5277 37.4191 60.3197 37.3498 60.053 37.2751C59.6904 37.1684 59.3944 37.0644 59.165 36.9631C58.941 36.8564 58.7464 36.6991 58.581 36.4911C58.421 36.2778 58.341 35.9951 58.341 35.6431C58.341 35.3124 58.4237 35.0244 58.589 34.7791C58.7544 34.5338 58.9864 34.3471 59.285 34.2191C59.5837 34.0858 59.925 34.0191 60.309 34.0191C60.885 34.0191 61.3517 34.1604 61.709 34.4431C62.0717 34.7204 62.2717 35.1098 62.309 35.6111H61.077C61.0664 35.4191 60.9837 35.2618 60.829 35.1391C60.6797 35.0111 60.4797 34.9471 60.229 34.9471C60.0104 34.9471 59.8344 35.0031 59.701 35.1151C59.573 35.2271 59.509 35.3898 59.509 35.6031C59.509 35.7524 59.557 35.8778 59.653 35.9791C59.7544 36.0751 59.877 36.1551 60.021 36.2191C60.1704 36.2778 60.3784 36.3471 60.645 36.4271C61.0077 36.5338 61.3037 36.6404 61.533 36.7471C61.7624 36.8538 61.9597 37.0138 62.125 37.2271C62.2904 37.4404 62.373 37.7204 62.373 38.0671C62.373 38.3658 62.2957 38.6431 62.141 38.8991C61.9864 39.1551 61.7597 39.3604 61.461 39.5151C61.1624 39.6644 60.8077 39.7391 60.397 39.7391ZM66.232 39.7391C65.8427 39.7391 65.4907 39.6724 65.176 39.5391C64.8667 39.4058 64.6214 39.2138 64.44 38.9631C64.2587 38.7124 64.1654 38.4164 64.16 38.0751H65.36C65.376 38.3044 65.456 38.4858 65.6 38.6191C65.7494 38.7524 65.952 38.8191 66.208 38.8191C66.4694 38.8191 66.6747 38.7578 66.824 38.6351C66.9734 38.5071 67.048 38.3418 67.048 38.1391C67.048 37.9738 66.9974 37.8378 66.896 37.7311C66.7947 37.6244 66.6667 37.5418 66.512 37.4831C66.3627 37.4191 66.1547 37.3498 65.888 37.2751C65.5254 37.1684 65.2294 37.0644 65 36.9631C64.776 36.8564 64.5814 36.6991 64.416 36.4911C64.256 36.2778 64.176 35.9951 64.176 35.6431C64.176 35.3124 64.2587 35.0244 64.424 34.7791C64.5894 34.5338 64.8214 34.3471 65.12 34.2191C65.4187 34.0858 65.76 34.0191 66.144 34.0191C66.72 34.0191 67.1867 34.1604 67.544 34.4431C67.9067 34.7204 68.1067 35.1098 68.144 35.6111H66.912C66.9014 35.4191 66.8187 35.2618 66.664 35.1391C66.5147 35.0111 66.3147 34.9471 66.064 34.9471C65.8454 34.9471 65.6694 35.0031 65.536 35.1151C65.408 35.2271 65.344 35.3898 65.344 35.6031C65.344 35.7524 65.392 35.8778 65.488 35.9791C65.5894 36.0751 65.712 36.1551 65.856 36.2191C66.0054 36.2778 66.2134 36.3471 66.48 36.4271C66.8427 36.5338 67.1387 36.6404 67.368 36.7471C67.5974 36.8538 67.7947 37.0138 67.96 37.2271C68.1254 37.4404 68.208 37.7204 68.208 38.0671C68.208 38.3658 68.1307 38.6431 67.976 38.8991C67.8214 39.1551 67.5947 39.3604 67.296 39.5151C66.9974 39.6644 66.6427 39.7391 66.232 39.7391ZM71.259 34.0991V39.6831H70.139V34.0991H71.259ZM75.9176 39.7391C75.3949 39.7391 74.9149 39.6164 74.4776 39.3711C74.0403 39.1258 73.6936 38.7871 73.4376 38.3551C73.1816 37.9178 73.0536 37.4244 73.0536 36.8751C73.0536 36.3311 73.1816 35.8431 73.4376 35.4111C73.6936 34.9738 74.0403 34.6324 74.4776 34.3871C74.9149 34.1418 75.3949 34.0191 75.9176 34.0191C76.4456 34.0191 76.9256 34.1418 77.3576 34.3871C77.7949 34.6324 78.1389 34.9738 78.3896 35.4111C78.6456 35.8431 78.7736 36.3311 78.7736 36.8751C78.7736 37.4244 78.6456 37.9178 78.3896 38.3551C78.1389 38.7871 77.7949 39.1258 77.3576 39.3711C76.9203 39.6164 76.4403 39.7391 75.9176 39.7391ZM75.9176 38.7391C76.2536 38.7391 76.5496 38.6644 76.8056 38.5151C77.0616 38.3604 77.2616 38.1418 77.4056 37.8591C77.5496 37.5764 77.6216 37.2484 77.6216 36.8751C77.6216 36.5018 77.5496 36.1764 77.4056 35.8991C77.2616 35.6164 77.0616 35.4004 76.8056 35.2511C76.5496 35.1018 76.2536 35.0271 75.9176 35.0271C75.5816 35.0271 75.2829 35.1018 75.0216 35.2511C74.7656 35.4004 74.5656 35.6164 74.4216 35.8991C74.2776 36.1764 74.2056 36.5018 74.2056 36.8751C74.2056 37.2484 74.2776 37.5764 74.4216 37.8591C74.5656 38.1418 74.7656 38.3604 75.0216 38.5151C75.2829 38.6644 75.5816 38.7391 75.9176 38.7391ZM85.3428 39.6831H84.2228L81.6868 35.8511V39.6831H80.5668V34.0911H81.6868L84.2228 37.9311V34.0911H85.3428V39.6831ZM90.8337 38.6191H88.6097L88.2417 39.6831H87.0657L89.0737 34.0911H90.3777L92.3857 39.6831H91.2017L90.8337 38.6191ZM90.5297 37.7231L89.7217 35.3871L88.9137 37.7231H90.5297ZM95.2162 38.7951H97.0562V39.6831H94.0962V34.0991H95.2162V38.7951ZM100.656 39.7391C100.267 39.7391 99.9148 39.6724 99.6001 39.5391C99.2908 39.4058 99.0454 39.2138 98.8641 38.9631C98.6828 38.7124 98.5894 38.4164 98.5841 38.0751H99.7841C99.8001 38.3044 99.8801 38.4858 100.024 38.6191C100.173 38.7524 100.376 38.8191 100.632 38.8191C100.893 38.8191 101.099 38.7578 101.248 38.6351C101.397 38.5071 101.472 38.3418 101.472 38.1391C101.472 37.9738 101.421 37.8378 101.32 37.7311C101.219 37.6244 101.091 37.5418 100.936 37.4831C100.787 37.4191 100.579 37.3498 100.312 37.2751C99.9494 37.1684 99.6534 37.0644 99.4241 36.9631C99.2001 36.8564 99.0054 36.6991 98.8401 36.4911C98.6801 36.2778 98.6001 35.9951 98.6001 35.6431C98.6001 35.3124 98.6828 35.0244 98.8481 34.7791C99.0134 34.5338 99.2454 34.3471 99.5441 34.2191C99.8428 34.0858 100.184 34.0191 100.568 34.0191C101.144 34.0191 101.611 34.1604 101.968 34.4431C102.331 34.7204 102.531 35.1098 102.568 35.6111H101.336C101.325 35.4191 101.243 35.2618 101.088 35.1391C100.939 35.0111 100.739 34.9471 100.488 34.9471C100.269 34.9471 100.093 35.0031 99.9601 35.1151C99.8321 35.2271 99.7681 35.3898 99.7681 35.6031C99.7681 35.7524 99.8161 35.8778 99.9121 35.9791C100.013 36.0751 100.136 36.1551 100.28 36.2191C100.429 36.2778 100.637 36.3471 100.904 36.4271C101.267 36.5338 101.563 36.6404 101.792 36.7471C102.021 36.8538 102.219 37.0138 102.384 37.2271C102.549 37.4404 102.632 37.7204 102.632 38.0671C102.632 38.3658 102.555 38.6431 102.4 38.8991C102.245 39.1551 102.019 39.3604 101.72 39.5151C101.421 39.6644 101.067 39.7391 100.656 39.7391Z" fill="#48ABE2"/>
<defs>
<clipPath id="clip0_574_25178">
<rect width="110" height="26.6832" fill="white"/>
</clipPath>
</defs>
</svg>
