<svg width="48" height="48" viewBox="0 0 48 48" fill="none" xmlns="http://www.w3.org/2000/svg">
<rect width="48" height="48" rx="24" fill="#FFF5E5"/>
<path d="M24 34C29.5 34 34 29.5 34 24C34 18.5 29.5 14 24 14C18.5 14 14 18.5 14 24C14 29.5 18.5 34 24 34Z" stroke="#FFAC30" stroke-width="2" stroke-linecap="round" stroke-linejoin="round"/>
<path d="M23.6646 18C24.7739 18 25.6646 18.304 26.3366 18.912C27.0192 19.5093 27.3606 20.336 27.3606 21.392C27.3606 22.4373 27.0246 23.2373 26.3526 23.792C25.6806 24.336 24.7899 24.608 23.6806 24.608L23.6166 25.84H21.6486L21.5686 23.12H22.2886C23.2166 23.12 23.9312 22.9973 24.4326 22.752C24.9339 22.5067 25.1846 22.0587 25.1846 21.408C25.1846 20.9387 25.0459 20.5653 24.7686 20.288C24.5019 20.0107 24.1339 19.872 23.6646 19.872C23.1739 19.872 22.7899 20.0053 22.5126 20.272C22.2459 20.5387 22.1126 20.9067 22.1126 21.376H20.0006C19.9899 20.7253 20.1286 20.144 20.4166 19.632C20.7046 19.12 21.1259 18.72 21.6806 18.432C22.2459 18.144 22.9072 18 23.6646 18ZM22.6246 29.664C22.2192 29.664 21.8832 29.5413 21.6166 29.296C21.3606 29.04 21.2326 28.7253 21.2326 28.352C21.2326 27.9787 21.3606 27.6693 21.6166 27.424C21.8832 27.168 22.2192 27.04 22.6246 27.04C23.0192 27.04 23.3446 27.168 23.6006 27.424C23.8566 27.6693 23.9846 27.9787 23.9846 28.352C23.9846 28.7253 23.8566 29.04 23.6006 29.296C23.3446 29.5413 23.0192 29.664 22.6246 29.664Z" fill="#FFAC30"/>
</svg>
