<svg width="25" height="24" viewBox="0 0 25 24" fill="none" xmlns="http://www.w3.org/2000/svg">
  <path
    d="M18.5703 8.51013L10.0103 4.23013C4.26026 1.35013 1.90026 3.71013 4.78026 9.46013L5.65026 11.2001C5.90026 11.7101 5.90026 12.3001 5.65026 12.8101L4.78026 14.5401C1.90026 20.2901 4.25026 22.6501 10.0103 19.7701L18.5703 15.4901C22.4103 13.5701 22.4103 10.4301 18.5703 8.51013ZM15.3403 12.7501H9.94026C9.53026 12.7501 9.19026 12.4101 9.19026 12.0001C9.19026 11.5901 9.53026 11.2501 9.94026 11.2501H15.3403C15.7503 11.2501 16.0903 11.5901 16.0903 12.0001C16.0903 12.4101 15.7503 12.7501 15.3403 12.7501Z"
    fill="#48ABE2" />
</svg>