<svg width="64" height="64" viewBox="0 0 64 64" fill="none" xmlns="http://www.w3.org/2000/svg">
<rect width="64" height="64" rx="32" fill="#F6F7F9"/>
<path fill-rule="evenodd" clip-rule="evenodd" d="M33 22C33 21.4477 32.5523 21 32 21C31.4477 21 31 21.4477 31 22V26C31 26.5523 31.4477 27 32 27C32.5523 27 33 26.5523 33 26V22ZM33 38C33 37.4477 32.5523 37 32 37C31.4477 37 31 37.4477 31 38V42C31 42.5523 31.4477 43 32 43C32.5523 43 33 42.5523 33 42V38ZM24.2226 24.2228C24.6131 23.8323 25.2463 23.8323 25.6368 24.2228L28.4668 27.0528C28.8573 27.4433 28.8573 28.0765 28.4668 28.467C28.0763 28.8576 27.4431 28.8576 27.0526 28.467L24.2226 25.637C23.8321 25.2465 23.8321 24.6133 24.2226 24.2228ZM36.9473 35.5329C36.5568 35.1424 35.9237 35.1424 35.5331 35.5329C35.1426 35.9234 35.1426 36.5566 35.5331 36.9471L38.3631 39.7771C38.7537 40.1676 39.3868 40.1676 39.7773 39.7771C40.1679 39.3866 40.1679 38.7534 39.7773 38.3629L36.9473 35.5329ZM21 32C21 31.4477 21.4477 31 22 31H26C26.5523 31 27 31.4477 27 32C27 32.5523 26.5523 33 26 33H22C21.4477 33 21 32.5523 21 32ZM38 31C37.4477 31 37 31.4477 37 32C37 32.5523 37.4477 33 38 33H42C42.5523 33 43 32.5523 43 32C43 31.4477 42.5523 31 42 31H38ZM28.4668 35.5329C28.8573 35.9234 28.8573 36.5566 28.4668 36.9471L25.6368 39.7771C25.2463 40.1676 24.6131 40.1676 24.2226 39.7771C23.8321 39.3866 23.8321 38.7534 24.2226 38.3629L27.0526 35.5329C27.4431 35.1424 28.0763 35.1424 28.4668 35.5329ZM39.7773 25.637C40.1679 25.2465 40.1679 24.6133 39.7773 24.2228C39.3868 23.8323 38.7537 23.8323 38.3631 24.2228L35.5331 27.0528C35.1426 27.4433 35.1426 28.0765 35.5331 28.467C35.9237 28.8576 36.5568 28.8576 36.9473 28.467L39.7773 25.637Z" fill="url(#paint0_angular_1516_30124)"/>
<defs>
<radialGradient id="paint0_angular_1516_30124" cx="0" cy="0" r="1" gradientUnits="userSpaceOnUse" gradientTransform="translate(32 32) rotate(-149.036) scale(11.6619)">
<stop stop-color="#35D6AF"/>
<stop offset="1" stop-color="#35D6AF" stop-opacity="0.23"/>
</radialGradient>
</defs>
</svg>
