<svg width="21" height="20" viewBox="0 0 21 20" fill="none" xmlns="http://www.w3.org/2000/svg">
  <path
    d="M10.5002 10C12.8013 10 14.6668 8.13454 14.6668 5.83335C14.6668 3.53217 12.8013 1.66669 10.5002 1.66669C8.19898 1.66669 6.3335 3.53217 6.3335 5.83335C6.3335 8.13454 8.19898 10 10.5002 10Z"
    stroke="white" stroke-width="1.5" stroke-linecap="round" stroke-linejoin="round" />
  <path d="M3.3418 18.3333C3.3418 15.1083 6.55013 12.5 10.5001 12.5C11.3001 12.5 12.0751 12.6083 12.8001 12.8083"
    stroke="white" stroke-width="1.5" stroke-linecap="round" stroke-linejoin="round" />
  <path
    d="M18.8332 15C18.8332 15.2667 18.7998 15.525 18.7332 15.775C18.6582 16.1083 18.5248 16.4334 18.3498 16.7167C17.7748 17.6834 16.7165 18.3334 15.4998 18.3334C14.6415 18.3334 13.8665 18.0083 13.2832 17.475C13.0332 17.2583 12.8165 17 12.6498 16.7167C12.3415 16.2167 12.1665 15.625 12.1665 15C12.1665 14.1 12.5248 13.275 13.1082 12.675C13.7165 12.05 14.5665 11.6667 15.4998 11.6667C16.4832 11.6667 17.3748 12.0917 17.9748 12.775C18.5082 13.3667 18.8332 14.15 18.8332 15Z"
    stroke="#35D6AF" stroke-width="1.5" stroke-miterlimit="10" stroke-linecap="round" stroke-linejoin="round" />
  <path d="M16.7416 14.9834H14.2583" stroke="#35D6AF" stroke-width="1.5" stroke-miterlimit="10" stroke-linecap="round"
    stroke-linejoin="round" />
  <path d="M15.5 13.7667V16.2584" stroke="#35D6AF" stroke-width="1.5" stroke-miterlimit="10" stroke-linecap="round"
    stroke-linejoin="round" />
</svg>