<svg width="21" height="20" viewBox="0 0 21 20" fill="none" xmlns="http://www.w3.org/2000/svg">
<path d="M15.9163 16.25H12.583" stroke="#35D6AF" stroke-width="1.5" stroke-linecap="round" stroke-linejoin="round"/>
<path d="M14.25 17.9166V14.5833" stroke="#35D6AF" stroke-width="1.5" stroke-linecap="round" stroke-linejoin="round"/>
<path d="M10.6332 9.05835C10.5498 9.05002 10.4498 9.05002 10.3582 9.05835C8.37484 8.99169 6.79984 7.36669 6.79984 5.36669C6.7915 3.32502 8.44984 1.66669 10.4915 1.66669C12.5332 1.66669 14.1915 3.32502 14.1915 5.36669C14.1915 7.36669 12.6082 8.99169 10.6332 9.05835Z" stroke="currentColor" stroke-width="1.5" stroke-linecap="round" stroke-linejoin="round"/>
<path d="M10.4922 18.175C8.97552 18.175 7.46719 17.7917 6.31719 17.025C4.30052 15.675 4.30052 13.475 6.31719 12.1333C8.60885 10.6 12.3672 10.6 14.6589 12.1333" stroke="currentColor" stroke-width="1.5" stroke-linecap="round" stroke-linejoin="round"/>
</svg>
