<svg width="55" height="22" viewBox="0 0 55 22" fill="none" xmlns="http://www.w3.org/2000/svg">
<path d="M15.0643 6.03089C15.3524 5.47657 15.7397 4.9905 16.2272 4.57232C16.7144 4.15449 17.2877 3.82545 17.9469 3.58589C18.6058 3.34634 19.3065 3.22656 20.0486 3.22656C20.8017 3.22656 21.5077 3.34634 22.167 3.58589C22.8259 3.82545 23.4019 4.15449 23.8949 4.57232C24.3874 4.9905 24.7754 5.47657 25.0578 6.03089C25.3401 6.58521 25.4814 7.17713 25.4814 7.80666V13.5706H22.7734V7.81675C22.7734 7.50721 22.7009 7.21195 22.5567 6.93061C22.4125 6.64927 22.218 6.40554 21.9735 6.19906C21.729 5.99259 21.4402 5.82859 21.1069 5.70672C20.7735 5.58485 20.418 5.52357 20.0403 5.52357C19.6624 5.52357 19.3097 5.58451 18.982 5.70672C18.6544 5.82859 18.3685 5.99293 18.124 6.19906C17.8795 6.40554 17.6878 6.64927 17.549 6.93061C17.4101 7.21195 17.3409 7.50721 17.3409 7.81675V13.5706H14.6328V7.80666C14.6325 7.17713 14.7763 6.58521 15.0643 6.03089Z" fill="#1A1A1A"/>
<path d="M36.7007 10.2731C36.7007 10.5458 36.8115 10.7805 37.0329 10.9779C37.2544 11.1753 37.5218 11.2739 37.8352 11.2739C38.1485 11.2739 38.4187 11.1753 38.6454 10.9779C38.8724 10.7805 38.9856 10.5458 38.9856 10.2731C38.9856 10.0948 38.9341 9.93502 38.8317 9.794C38.729 9.65298 38.6019 9.53111 38.4508 9.42769C38.2993 9.33403 38.0994 9.23514 37.8512 9.13172C37.6026 9.0283 37.3324 8.91584 37.0409 8.79362C36.7491 8.67175 36.4518 8.53072 36.1495 8.3709C35.8469 8.21142 35.5743 8.02548 35.3309 7.81412C35.0879 7.60277 34.8904 7.35624 34.7393 7.0742C34.5879 6.7925 34.5123 6.46832 34.5123 6.10167C34.5123 5.70715 34.6007 5.33597 34.778 4.98846C34.9552 4.64096 35.1916 4.33559 35.4869 4.07235C35.7822 3.80945 36.1314 3.60262 36.5339 3.4522C36.9365 3.30212 37.3647 3.22656 37.8188 3.22656C38.2725 3.22656 38.7022 3.30177 39.1075 3.4522C39.5128 3.60262 39.8666 3.80945 40.1691 4.07235C40.4714 4.33559 40.7092 4.64096 40.8823 4.98846C41.055 5.33632 41.1417 5.70715 41.1417 6.10167H38.5159C38.5159 5.94567 38.4456 5.81057 38.3052 5.69566C38.1646 5.58111 38.0026 5.52365 37.8191 5.52365C37.6353 5.52365 37.479 5.5825 37.3491 5.69949C37.2195 5.81649 37.1544 5.95508 37.1544 6.1142C37.1544 6.35829 37.2739 6.5317 37.5124 6.63476C37.9786 6.85065 38.4529 7.05017 38.9355 7.23298C39.4181 7.41578 39.8599 7.63375 40.2611 7.8869C40.6622 8.14004 40.9905 8.45447 41.2451 8.82948C41.4996 9.2045 41.6274 9.6878 41.6274 10.2784C41.6274 10.7286 41.5275 11.1555 41.3276 11.5587C41.1274 11.9623 40.8575 12.3115 40.5173 12.6068C40.1768 12.9024 39.7743 13.1367 39.3098 13.3101C38.8449 13.4835 38.3536 13.5706 37.8348 13.5706C37.316 13.5706 36.8271 13.4839 36.3678 13.3098C35.9086 13.136 35.5088 12.901 35.1687 12.605C34.8285 12.3091 34.5579 11.9591 34.3584 11.5552C34.1582 11.1513 34.0586 10.7237 34.0586 10.2728H36.7007V10.2731Z" fill="#48ABE2"/>
<path d="M49.0878 13.5706C48.2583 13.5706 47.483 13.4345 46.7614 13.1618C46.0399 12.8895 45.4124 12.5184 44.8793 12.0487C44.3462 11.579 43.9235 11.0319 43.6111 10.4069C43.2988 9.78229 43.1426 9.11272 43.1426 8.39858C43.1426 7.68479 43.2984 7.01279 43.6111 6.38326C43.9235 5.75408 44.3462 5.20637 44.8793 4.74154C45.4124 4.27636 46.0395 3.90797 46.7614 3.63534C47.483 3.36305 48.2583 3.22656 49.0878 3.22656C49.9062 3.22656 50.6735 3.3627 51.3899 3.63534C52.1059 3.90797 52.7306 4.2767 53.2637 4.74154C53.7968 5.20672 54.2195 5.75408 54.5318 6.38326C54.8442 7.01279 55.0004 7.68479 55.0004 8.39858V13.5706H52.3672V8.40764C52.3672 8.01383 52.2808 7.64127 52.1086 7.28925C51.9361 6.93758 51.6991 6.63047 51.3978 6.36759C51.0962 6.10505 50.7488 5.89893 50.356 5.74851C49.9627 5.59844 49.54 5.52357 49.0878 5.52357C48.6356 5.52357 48.2073 5.59879 47.8036 5.74851C47.3997 5.89858 47.047 6.1047 46.7454 6.36689C46.4439 6.62942 46.2068 6.93618 46.0347 7.28751C45.8622 7.63883 45.7761 8.01139 45.7761 8.4052C45.7761 8.799 45.8622 9.16913 46.0347 9.51592C46.2068 9.86272 46.4439 10.165 46.7454 10.4226C47.0467 10.6803 47.3997 10.8864 47.8036 11.041C48.2076 11.1956 48.6356 11.2729 49.0878 11.2729C49.4432 11.2729 49.785 11.2234 50.1137 11.1249C50.442 11.0264 50.7409 10.8878 51.0102 10.7092V13.2739C50.7086 13.368 50.3962 13.4407 50.0731 13.4923C49.7503 13.5448 49.4217 13.5706 49.0878 13.5706Z" fill="#48ABE2"/>
<path d="M6.0717 13.5706C5.22457 13.5706 4.43273 13.4345 3.69584 13.1618C2.95894 12.8895 2.31809 12.5184 1.77366 12.0487C1.22923 11.579 0.797509 11.0319 0.478506 10.4069C0.159502 9.78229 0 9.11272 0 8.39858C0 7.68479 0.159147 7.01279 0.478506 6.38326C0.797509 5.75408 1.22923 5.20637 1.77366 4.74154C2.31809 4.27636 2.95858 3.90797 3.69584 3.63534C4.43273 3.36305 5.22457 3.22656 6.0717 3.22656C6.90749 3.22656 7.69118 3.3627 8.42276 3.63534C9.15399 3.90797 9.792 4.2767 10.3364 4.74154C10.8809 5.20672 11.3126 5.75408 11.6316 6.38326C11.9506 7.01279 12.1101 7.68479 12.1101 8.39858V13.5706H9.42089V8.40764C9.42089 8.01383 9.33263 7.64127 9.15683 7.28925C8.98067 6.93758 8.73858 6.63047 8.43091 6.36759C8.1229 6.10505 7.7681 5.89893 7.36686 5.74851C6.96527 5.59844 6.53355 5.52357 6.0717 5.52357C5.60986 5.52357 5.17247 5.59879 4.76024 5.74851C4.34767 5.89858 3.98755 6.1047 3.67953 6.36689C3.37152 6.62942 3.12943 6.93618 2.95362 7.28751C2.77746 7.63883 2.68956 8.01139 2.68956 8.4052C2.68956 8.799 2.77746 9.16913 2.95362 9.51592C3.12943 9.86272 3.37152 10.165 3.67953 10.4226C3.98719 10.6803 4.34767 10.8864 4.76024 11.041C5.17282 11.1956 5.60986 11.2729 6.0717 11.2729C6.43466 11.2729 6.78379 11.2234 7.11945 11.1249C7.45476 11.0264 7.75994 10.8878 8.035 10.7092V13.2739C7.72698 13.368 7.40798 13.4407 7.07798 13.4923C6.74835 13.5448 6.41268 13.5706 6.0717 13.5706Z" fill="#1A1A1A"/>
<path d="M33.279 3.13593H30.7358V0.199219H28.0039V13.5708H30.7358V5.45944H31.8254H33.5016C33.5016 5.45944 33.5368 4.00905 34.8158 3.1074L33.279 3.13593Z" fill="#1A1A1A"/>
<path d="M5.47445 16.7783V17.2303H4.31045V17.9463H5.20245V18.3903H4.31045V19.5703H3.75045V16.7783H5.47445ZM7.64755 19.5983C7.38621 19.5983 7.14621 19.537 6.92755 19.4143C6.70888 19.2916 6.53555 19.1223 6.40755 18.9063C6.27955 18.6876 6.21555 18.441 6.21555 18.1663C6.21555 17.8943 6.27955 17.6503 6.40755 17.4343C6.53555 17.2156 6.70888 17.045 6.92755 16.9223C7.14621 16.7996 7.38621 16.7383 7.64755 16.7383C7.91155 16.7383 8.15155 16.7996 8.36755 16.9223C8.58621 17.045 8.75821 17.2156 8.88355 17.4343C9.01155 17.6503 9.07555 17.8943 9.07555 18.1663C9.07555 18.441 9.01155 18.6876 8.88355 18.9063C8.75821 19.1223 8.58621 19.2916 8.36755 19.4143C8.14888 19.537 7.90888 19.5983 7.64755 19.5983ZM7.64755 19.0983C7.81555 19.0983 7.96355 19.061 8.09155 18.9863C8.21955 18.909 8.31955 18.7996 8.39155 18.6583C8.46355 18.517 8.49955 18.353 8.49955 18.1663C8.49955 17.9796 8.46355 17.817 8.39155 17.6783C8.31955 17.537 8.21955 17.429 8.09155 17.3543C7.96355 17.2796 7.81555 17.2423 7.64755 17.2423C7.47955 17.2423 7.33021 17.2796 7.19955 17.3543C7.07155 17.429 6.97155 17.537 6.89955 17.6783C6.82755 17.817 6.79155 17.9796 6.79155 18.1663C6.79155 18.353 6.82755 18.517 6.89955 18.6583C6.97155 18.7996 7.07155 18.909 7.19955 18.9863C7.33021 19.061 7.47955 19.0983 7.64755 19.0983ZM11.4122 19.5703L10.7962 18.4823H10.5322V19.5703H9.97217V16.7783H11.0202C11.2362 16.7783 11.4202 16.817 11.5722 16.8943C11.7242 16.969 11.8375 17.0716 11.9122 17.2023C11.9895 17.3303 12.0282 17.4743 12.0282 17.6343C12.0282 17.8183 11.9748 17.985 11.8682 18.1343C11.7615 18.281 11.6028 18.3823 11.3922 18.4383L12.0602 19.5703H11.4122ZM10.5322 18.0623H11.0002C11.1522 18.0623 11.2655 18.0263 11.3402 17.9543C11.4148 17.8796 11.4522 17.777 11.4522 17.6463C11.4522 17.5183 11.4148 17.4196 11.3402 17.3503C11.2655 17.2783 11.1522 17.2423 11.0002 17.2423H10.5322V18.0623ZM16.4838 17.6423C16.4838 17.7916 16.4478 17.9316 16.3758 18.0623C16.3065 18.193 16.1958 18.2983 16.0438 18.3783C15.8945 18.4583 15.7051 18.4983 15.4758 18.4983H15.0078V19.5703H14.4478V16.7783H15.4758C15.6918 16.7783 15.8758 16.8156 16.0278 16.8903C16.1798 16.965 16.2931 17.0676 16.3678 17.1983C16.4451 17.329 16.4838 17.477 16.4838 17.6423ZM15.4518 18.0463C15.6065 18.0463 15.7211 18.0116 15.7958 17.9423C15.8705 17.8703 15.9078 17.7703 15.9078 17.6423C15.9078 17.3703 15.7558 17.2343 15.4518 17.2343H15.0078V18.0463H15.4518ZM18.8014 19.5703L18.1854 18.4823H17.9214V19.5703H17.3614V16.7783H18.4094C18.6254 16.7783 18.8094 16.817 18.9614 16.8943C19.1134 16.969 19.2267 17.0716 19.3014 17.2023C19.3787 17.3303 19.4174 17.4743 19.4174 17.6343C19.4174 17.8183 19.3641 17.985 19.2574 18.1343C19.1507 18.281 18.9921 18.3823 18.7814 18.4383L19.4494 19.5703H18.8014ZM17.9214 18.0623H18.3894C18.5414 18.0623 18.6547 18.0263 18.7294 17.9543C18.8041 17.8796 18.8414 17.777 18.8414 17.6463C18.8414 17.5183 18.8041 17.4196 18.7294 17.3503C18.6547 17.2783 18.5414 17.2423 18.3894 17.2423H17.9214V18.0623ZM21.6999 19.5983C21.4386 19.5983 21.1986 19.537 20.9799 19.4143C20.7612 19.2916 20.5879 19.1223 20.4599 18.9063C20.3319 18.6876 20.2679 18.441 20.2679 18.1663C20.2679 17.8943 20.3319 17.6503 20.4599 17.4343C20.5879 17.2156 20.7612 17.045 20.9799 16.9223C21.1986 16.7996 21.4386 16.7383 21.6999 16.7383C21.9639 16.7383 22.2039 16.7996 22.4199 16.9223C22.6386 17.045 22.8106 17.2156 22.9359 17.4343C23.0639 17.6503 23.1279 17.8943 23.1279 18.1663C23.1279 18.441 23.0639 18.6876 22.9359 18.9063C22.8106 19.1223 22.6386 19.2916 22.4199 19.4143C22.2012 19.537 21.9612 19.5983 21.6999 19.5983ZM21.6999 19.0983C21.8679 19.0983 22.0159 19.061 22.1439 18.9863C22.2719 18.909 22.3719 18.7996 22.4439 18.6583C22.5159 18.517 22.5519 18.353 22.5519 18.1663C22.5519 17.9796 22.5159 17.817 22.4439 17.6783C22.3719 17.537 22.2719 17.429 22.1439 17.3543C22.0159 17.2796 21.8679 17.2423 21.6999 17.2423C21.5319 17.2423 21.3826 17.2796 21.2519 17.3543C21.1239 17.429 21.0239 17.537 20.9519 17.6783C20.8799 17.817 20.8439 17.9796 20.8439 18.1663C20.8439 18.353 20.8799 18.517 20.9519 18.6583C21.0239 18.7996 21.1239 18.909 21.2519 18.9863C21.3826 19.061 21.5319 19.0983 21.6999 19.0983ZM25.7485 16.7783V17.2303H24.5845V17.9463H25.4765V18.3903H24.5845V19.5703H24.0245V16.7783H25.7485ZM27.1856 17.2303V17.9303H28.1256V18.3743H27.1856V19.1143H28.2456V19.5703H26.6256V16.7743H28.2456V17.2303H27.1856ZM30.1985 19.5983C30.0038 19.5983 29.8278 19.565 29.6705 19.4983C29.5158 19.4316 29.3932 19.3356 29.3025 19.2103C29.2118 19.085 29.1652 18.937 29.1625 18.7663H29.7625C29.7705 18.881 29.8105 18.9716 29.8825 19.0383C29.9572 19.105 30.0585 19.1383 30.1865 19.1383C30.3172 19.1383 30.4198 19.1076 30.4945 19.0463C30.5692 18.9823 30.6065 18.8996 30.6065 18.7983C30.6065 18.7156 30.5812 18.6476 30.5305 18.5943C30.4798 18.541 30.4158 18.4996 30.3385 18.4703C30.2638 18.4383 30.1598 18.4036 30.0265 18.3663C29.8452 18.313 29.6972 18.261 29.5825 18.2103C29.4705 18.157 29.3732 18.0783 29.2905 17.9743C29.2105 17.8676 29.1705 17.7263 29.1705 17.5503C29.1705 17.385 29.2118 17.241 29.2945 17.1183C29.3772 16.9956 29.4932 16.9023 29.6425 16.8383C29.7918 16.7716 29.9625 16.7383 30.1545 16.7383C30.4425 16.7383 30.6758 16.809 30.8545 16.9503C31.0358 17.089 31.1358 17.2836 31.1545 17.5343H30.5385C30.5332 17.4383 30.4918 17.3596 30.4145 17.2983C30.3398 17.2343 30.2398 17.2023 30.1145 17.2023C30.0052 17.2023 29.9172 17.2303 29.8505 17.2863C29.7865 17.3423 29.7545 17.4236 29.7545 17.5303C29.7545 17.605 29.7785 17.6676 29.8265 17.7183C29.8772 17.7663 29.9385 17.8063 30.0105 17.8383C30.0852 17.8676 30.1892 17.9023 30.3225 17.9423C30.5038 17.9956 30.6518 18.049 30.7665 18.1023C30.8812 18.1556 30.9798 18.2356 31.0625 18.3423C31.1452 18.449 31.1865 18.589 31.1865 18.7623C31.1865 18.9116 31.1478 19.0503 31.0705 19.1783C30.9932 19.3063 30.8798 19.409 30.7305 19.4863C30.5812 19.561 30.4038 19.5983 30.1985 19.5983ZM33.116 19.5983C32.9213 19.5983 32.7453 19.565 32.588 19.4983C32.4333 19.4316 32.3107 19.3356 32.22 19.2103C32.1293 19.085 32.0827 18.937 32.08 18.7663H32.68C32.688 18.881 32.728 18.9716 32.8 19.0383C32.8747 19.105 32.976 19.1383 33.104 19.1383C33.2347 19.1383 33.3373 19.1076 33.412 19.0463C33.4867 18.9823 33.524 18.8996 33.524 18.7983C33.524 18.7156 33.4987 18.6476 33.448 18.5943C33.3973 18.541 33.3333 18.4996 33.256 18.4703C33.1813 18.4383 33.0773 18.4036 32.944 18.3663C32.7627 18.313 32.6147 18.261 32.5 18.2103C32.388 18.157 32.2907 18.0783 32.208 17.9743C32.128 17.8676 32.088 17.7263 32.088 17.5503C32.088 17.385 32.1293 17.241 32.212 17.1183C32.2947 16.9956 32.4107 16.9023 32.56 16.8383C32.7093 16.7716 32.88 16.7383 33.072 16.7383C33.36 16.7383 33.5933 16.809 33.772 16.9503C33.9533 17.089 34.0533 17.2836 34.072 17.5343H33.456C33.4507 17.4383 33.4093 17.3596 33.332 17.2983C33.2573 17.2343 33.1573 17.2023 33.032 17.2023C32.9227 17.2023 32.8347 17.2303 32.768 17.2863C32.704 17.3423 32.672 17.4236 32.672 17.5303C32.672 17.605 32.696 17.6676 32.744 17.7183C32.7947 17.7663 32.856 17.8063 32.928 17.8383C33.0027 17.8676 33.1067 17.9023 33.24 17.9423C33.4213 17.9956 33.5693 18.049 33.684 18.1023C33.7987 18.1556 33.8973 18.2356 33.98 18.3423C34.0627 18.449 34.104 18.589 34.104 18.7623C34.104 18.9116 34.0653 19.0503 33.988 19.1783C33.9107 19.3063 33.7973 19.409 33.648 19.4863C33.4987 19.561 33.3213 19.5983 33.116 19.5983ZM35.6295 16.7783V19.5703H35.0695V16.7783H35.6295ZM37.9588 19.5983C37.6975 19.5983 37.4575 19.537 37.2388 19.4143C37.0201 19.2916 36.8468 19.1223 36.7188 18.9063C36.5908 18.6876 36.5268 18.441 36.5268 18.1663C36.5268 17.8943 36.5908 17.6503 36.7188 17.4343C36.8468 17.2156 37.0201 17.045 37.2388 16.9223C37.4575 16.7996 37.6975 16.7383 37.9588 16.7383C38.2228 16.7383 38.4628 16.7996 38.6788 16.9223C38.8975 17.045 39.0695 17.2156 39.1948 17.4343C39.3228 17.6503 39.3868 17.8943 39.3868 18.1663C39.3868 18.441 39.3228 18.6876 39.1948 18.9063C39.0695 19.1223 38.8975 19.2916 38.6788 19.4143C38.4601 19.537 38.2201 19.5983 37.9588 19.5983ZM37.9588 19.0983C38.1268 19.0983 38.2748 19.061 38.4028 18.9863C38.5308 18.909 38.6308 18.7996 38.7028 18.6583C38.7748 18.517 38.8108 18.353 38.8108 18.1663C38.8108 17.9796 38.7748 17.817 38.7028 17.6783C38.6308 17.537 38.5308 17.429 38.4028 17.3543C38.2748 17.2796 38.1268 17.2423 37.9588 17.2423C37.7908 17.2423 37.6415 17.2796 37.5108 17.3543C37.3828 17.429 37.2828 17.537 37.2108 17.6783C37.1388 17.817 37.1028 17.9796 37.1028 18.1663C37.1028 18.353 37.1388 18.517 37.2108 18.6583C37.2828 18.7996 37.3828 18.909 37.5108 18.9863C37.6415 19.061 37.7908 19.0983 37.9588 19.0983ZM42.6714 19.5703H42.1114L40.8434 17.6543V19.5703H40.2834V16.7743H40.8434L42.1114 18.6943V16.7743H42.6714V19.5703ZM45.4168 19.0383H44.3048L44.1208 19.5703H43.5328L44.5368 16.7743H45.1888L46.1928 19.5703H45.6008L45.4168 19.0383ZM45.2648 18.5903L44.8608 17.4223L44.4568 18.5903H45.2648ZM47.6081 19.1263H48.5281V19.5703H47.0481V16.7783H47.6081V19.1263ZM50.328 19.5983C50.1334 19.5983 49.9574 19.565 49.8 19.4983C49.6454 19.4316 49.5227 19.3356 49.432 19.2103C49.3414 19.085 49.2947 18.937 49.292 18.7663H49.892C49.9 18.881 49.94 18.9716 50.012 19.0383C50.0867 19.105 50.188 19.1383 50.316 19.1383C50.4467 19.1383 50.5494 19.1076 50.624 19.0463C50.6987 18.9823 50.736 18.8996 50.736 18.7983C50.736 18.7156 50.7107 18.6476 50.66 18.5943C50.6094 18.541 50.5454 18.4996 50.468 18.4703C50.3934 18.4383 50.2894 18.4036 50.156 18.3663C49.9747 18.313 49.8267 18.261 49.712 18.2103C49.6 18.157 49.5027 18.0783 49.42 17.9743C49.34 17.8676 49.3 17.7263 49.3 17.5503C49.3 17.385 49.3414 17.241 49.424 17.1183C49.5067 16.9956 49.6227 16.9023 49.772 16.8383C49.9214 16.7716 50.092 16.7383 50.284 16.7383C50.572 16.7383 50.8054 16.809 50.984 16.9503C51.1654 17.089 51.2654 17.2836 51.284 17.5343H50.668C50.6627 17.4383 50.6214 17.3596 50.544 17.2983C50.4694 17.2343 50.3694 17.2023 50.244 17.2023C50.1347 17.2023 50.0467 17.2303 49.98 17.2863C49.916 17.3423 49.884 17.4236 49.884 17.5303C49.884 17.605 49.908 17.6676 49.956 17.7183C50.0067 17.7663 50.068 17.8063 50.14 17.8383C50.2147 17.8676 50.3187 17.9023 50.452 17.9423C50.6334 17.9956 50.7814 18.049 50.896 18.1023C51.0107 18.1556 51.1094 18.2356 51.192 18.3423C51.2747 18.449 51.316 18.589 51.316 18.7623C51.316 18.9116 51.2774 19.0503 51.2 19.1783C51.1227 19.3063 51.0094 19.409 50.86 19.4863C50.7107 19.561 50.5334 19.5983 50.328 19.5983Z" fill="#48ABE2"/>
</svg>
