<svg width="836" height="836" viewBox="0 0 836 836" fill="none" xmlns="http://www.w3.org/2000/svg">
<path d="M632.39 0.890137H203.06C91.3099 0.890137 0.399902 91.8001 0.399902 203.55V632.88C0.399902 744.63 91.3099 835.54 203.06 835.54H632.39C744.14 835.54 835.05 744.63 835.05 632.88V203.55C835.05 91.8001 744.14 0.890137 632.39 0.890137Z" fill="#48ABE2"/>
<path d="M632.39 30.8901H203.06C107.7 30.8901 30.3999 108.19 30.3999 203.55V632.88C30.3999 728.24 107.7 805.54 203.06 805.54H632.39C727.75 805.54 805.05 728.24 805.05 632.88V203.55C805.05 108.19 727.75 30.8901 632.39 30.8901Z" fill="white"/>
<path d="M292.85 425.02C291.48 424.92 290.76 424.86 290.76 424.86C374.61 524.02 434.45 441.74 439.77 433.97C440.24 434 440.71 434.03 441.19 434.07C441.18 434.06 392.68 333.28 292.85 425.02Z" fill="#4BA9E0"/>
<path d="M610.31 301.92C559.63 254.83 460.54 107.02 367.44 110.94C347.02 109.12 326.25 121.66 326.7 137.45C326.41 165.69 379.84 172.62 395.58 151.26C418.76 155.77 471.76 172.09 512.14 229.93C419.13 165.98 368.81 218.98 421.38 226.33C430.71 226.33 438.61 222.4 441.3 216.98C512.1 216.68 556.68 287.06 561.29 377.49C685.4 584.01 287.91 715.54 226.47 417.71C229.85 413.92 305.65 336.97 340.67 325.67C393.09 301.34 468.11 305.84 515.84 336.31C510.4 287.72 490.18 259.76 469.3 243.68C452.94 241.3 436.07 240.11 418.71 240.11C319.64 239.93 216.58 281.84 167.41 368.87C100.89 485.52 196.12 611.48 311.97 645.34C339.42 655.47 370.38 660.63 402.07 661.55C461.24 663.27 522.94 650.23 569.07 627.17V662.02H690.04V451.08C690.43 391.25 657.09 338.24 610.31 301.92Z" fill="#1A1A1A"/>
<path opacity="0.42" d="M805.05 632.88V501.83L664.11 361.3C680.51 388.17 690.24 418.61 690.01 451.07V662.02H569.04V627.17C522.92 650.23 461.21 663.28 402.04 661.55C370.35 660.63 339.39 655.47 311.94 645.34C301.76 642.36 291.74 638.67 281.97 634.35C291.35 648.13 302.15 660.87 314.18 672.33L447.71 805.53H632.37C727.75 805.54 805.05 728.24 805.05 632.88Z" fill="url(#paint0_linear_43_457)"/>
<defs>
<linearGradient id="paint0_linear_43_457" x1="310.598" y1="338.112" x2="898.571" y2="926.084" gradientUnits="userSpaceOnUse">
<stop stop-color="#CFD0D2"/>
<stop offset="1" stop-color="#CFD0D2"/>
</linearGradient>
</defs>
</svg>
