<svg width="24" height="24" viewBox="0 0 24 24" fill="none" xmlns="http://www.w3.org/2000/svg">
<path fill-rule="evenodd" clip-rule="evenodd" d="M16.334 2H7.665C4.26743 2 2 4.4326 2 7.916V16.084C2 19.5707 4.26137 22 7.665 22H16.333C19.7376 22 22 19.5707 22 16.084V7.916C22 4.4295 19.7378 2 16.334 2ZM7.665 3.5H16.334C18.8845 3.5 20.5 5.23496 20.5 7.916V16.084C20.5 18.7652 18.8844 20.5 16.333 20.5H7.665C5.11476 20.5 3.5 18.7653 3.5 16.084V7.916C3.5 5.23837 5.12034 3.5 7.665 3.5ZM8.8399 9.398C7.40375 9.398 6.2389 10.5637 6.2389 12C6.2389 13.4363 7.40375 14.602 8.8399 14.602C10.0161 14.602 11.0101 13.8211 11.3321 12.75L13.4312 12.7499V13.8515L13.438 13.9533C13.4877 14.3193 13.8015 14.6015 14.1812 14.6015C14.5954 14.6015 14.9312 14.2657 14.9312 13.8515V12.7498L16.2596 12.7498L16.2599 13.852L16.2667 13.9538C16.3164 14.3198 16.6302 14.602 17.0099 14.602C17.4241 14.602 17.7599 14.2662 17.7599 13.852V12L17.7531 11.8982C17.7034 11.5322 17.3896 11.25 17.0099 11.25H14.2088C14.1997 11.2497 14.1905 11.2495 14.1812 11.2495C14.1719 11.2495 14.1627 11.2497 14.1536 11.25H11.3321C11.0101 10.1788 10.016 9.398 8.8399 9.398ZM8.8399 10.898C9.44828 10.898 9.9419 11.3918 9.9419 12C9.9419 12.6082 9.44828 13.102 8.8399 13.102C8.23243 13.102 7.7389 12.6081 7.7389 12C7.7389 11.3919 8.23243 10.898 8.8399 10.898Z" fill="#292D32"/>
</svg>
