<svg width="24" height="24" viewBox="0 0 24 24" fill="none" xmlns="http://www.w3.org/2000/svg">
<path fill-rule="evenodd" clip-rule="evenodd" d="M18.865 5.1245C19.302 5.2775 19.594 5.6895 19.594 6.1525V12.9255C19.594 14.8185 18.906 16.6255 17.691 18.0255C17.08 18.7305 16.307 19.2795 15.486 19.7235L11.928 21.6455L8.364 19.7225C7.542 19.2785 6.768 18.7305 6.156 18.0245C4.94 16.6245 4.25 14.8165 4.25 12.9215V6.1525C4.25 5.6895 4.542 5.2775 4.979 5.1245L11.561 2.8115C11.795 2.7295 12.05 2.7295 12.283 2.8115L18.865 5.1245Z" stroke="#292D32" stroke-width="1.5" stroke-linecap="round" stroke-linejoin="round"/>
<path d="M9.32227 11.9191L11.2143 13.8121L15.1123 9.91406" stroke="#292D32" stroke-width="1.5" stroke-linecap="round" stroke-linejoin="round"/>
</svg>
