<svg width="24" height="24" viewBox="0 0 24 24" fill="none" xmlns="http://www.w3.org/2000/svg">
<path d="M21 12.9V9.3C21 4.8 19.2 3 14.7 3H9.3C4.8 3 3 4.8 3 9.3V14.7C3 19.2 4.8 21 9.3 21H12.9" stroke="#292D32" stroke-width="1.5" stroke-linecap="round" stroke-linejoin="round"/>
<path d="M21 12.9V9.3C21 4.8 19.2 3 14.7 3H9.3C4.8 3 3 4.8 3 9.3V14.7C3 19.2 4.8 21 9.3 21H12.9" stroke="#292D32" stroke-width="1.5" stroke-linecap="round" stroke-linejoin="round"/>
<path d="M21 12.9V9.3C21 4.8 19.2 3 14.7 3H9.3C4.8 3 3 4.8 3 9.3V14.7C3 19.2 4.8 21 9.3 21H12.9" stroke="#292D32" stroke-width="1.5" stroke-linecap="round" stroke-linejoin="round"/>
<path d="M15.5996 18.687L17.0216 20.1L20.0996 16.5" stroke="#292D32" stroke-width="1.5" stroke-linecap="round" stroke-linejoin="round"/>
<path d="M6.59961 13.998H14.6996" stroke="#292D32" stroke-width="1.5" stroke-linecap="round" stroke-linejoin="round"/>
<path d="M6.59961 8.99805H17.3996" stroke="#292D32" stroke-width="1.5" stroke-linecap="round" stroke-linejoin="round"/>
</svg>
